<mxfile host="app.diagrams.net" modified="2024-06-21T06:35:25.915Z" agent="Mozilla/5.0 (Macintosh; Intel Mac OS X 10_15_7) AppleWebKit/537.36 (KHTML, like Gecko) Chrome/126.0.0.0 Safari/537.36" etag="UW-Vyzzf8pm3_BxhTk0f" version="24.6.0" type="github">
  <diagram name="Page-1" id="C29a6b9e95ZkdC7WSFV4">
    <mxGraphModel dx="1434" dy="786" grid="1" gridSize="10" guides="1" tooltips="1" connect="1" arrows="1" fold="1" page="1" pageScale="1" pageWidth="900" pageHeight="1600" background="none" math="0" shadow="0">
      <root>
        <mxCell id="0" />
        <mxCell id="1" parent="0" />
        <UserObject label="" tags="背景" id="OCKaOWb37HJy0MvpUXwd-1">
          <mxCell style="vsdxID=1;fillColor=none;gradientColor=none;points=[];labelBackgroundColor=none;rounded=0;strokeColor=none;html=1;whiteSpace=wrap;" vertex="1" parent="1">
            <mxGeometry x="1142" y="561" width="237" height="192" as="geometry" />
          </mxCell>
        </UserObject>
        <mxCell id="OCKaOWb37HJy0MvpUXwd-2" value="&lt;div style=&quot;font-size: 1px&quot;&gt;&lt;p style=&quot;text-align:center;margin-left:0;margin-right:0;margin-top:0px;margin-bottom:0px;text-indent:0;vertical-align:middle;direction:ltr;&quot;&gt;&lt;font style=&quot;font-size:12px;font-family:0;color:#000000;direction:ltr;letter-spacing:0px;line-height:120%;opacity:1&quot;&gt;&lt;b&gt;NetService&lt;/b&gt;&lt;/font&gt;&lt;/p&gt;&lt;/div&gt;" style="verticalAlign=middle;align=center;overflow=width;vsdxID=2;fillColor=#FFFFFF;gradientColor=none;shape=stencil(lVLRDoIwDPyavS5blyg8I/4HCUMWkeEAxb+X2QkbEIxvvfa6u3YlImnLrJEEWNsZfZVPlXclEScCoOpSGtWNEREpEUmhjbwY3dc54iazTBvd9MO+MGAfsx3AXoiAsuiTOCP33me55fKQHMIBEHJ6iB0BfIJ7q1K1pxtHVPBAm+0Ic/ZDeqrD9iCh+Ex3Zo40hn/kp8TXgD/OwtO2g3lXm+z9xa/kF9Ov5gnF9/98DOZjKVRV4a359eVxjSk8TJG+AQ==);strokeColor=#000000;spacingTop=-3;spacingBottom=-3;spacingLeft=-3;spacingRight=-3;points=[];labelBackgroundColor=none;rounded=0;html=1;whiteSpace=wrap;" vertex="1" parent="OCKaOWb37HJy0MvpUXwd-1">
          <mxGeometry width="237" height="192" as="geometry" />
        </mxCell>
        <mxCell id="OCKaOWb37HJy0MvpUXwd-3" value="&lt;div style=&quot;font-size: 1px&quot;&gt;&lt;p style=&quot;text-align:left;margin-left:0;margin-right:0;margin-top:0px;margin-bottom:0px;text-indent:0;vertical-align:middle;direction:ltr;&quot;&gt;&lt;font style=&quot;font-size:12px;font-family:0;color:#000000;direction:ltr;letter-spacing:0px;line-height:120%;opacity:1&quot;&gt;+ chainId string&lt;br/&gt;&lt;/font&gt;&lt;font style=&quot;font-size:12px;font-family:0;color:#000000;direction:ltr;letter-spacing:0px;line-height:120%;opacity:1&quot;&gt;&lt;br/&gt;&lt;br/&gt;&lt;/font&gt;&lt;font style=&quot;font-size:12px;font-family:0;color:#000000;direction:ltr;letter-spacing:0px;line-height:120%;opacity:1&quot;&gt;+ localNet Net&lt;br/&gt;&lt;/font&gt;&lt;font style=&quot;font-size:12px;font-family:0;color:#000000;direction:ltr;letter-spacing:0px;line-height:120%;opacity:1&quot;&gt;&lt;br/&gt;&lt;br/&gt;&lt;/font&gt;&lt;font style=&quot;font-size:12px;font-family:0;color:#000000;direction:ltr;letter-spacing:0px;line-height:120%;opacity:1&quot;&gt;+ msgBus&lt;br/&gt;&lt;/font&gt;&lt;font style=&quot;font-size:12px;font-family:0;color:#000000;direction:ltr;letter-spacing:0px;line-height:120%;opacity:1&quot;&gt;+ configWatcher&lt;br/&gt;&lt;/font&gt;&lt;font style=&quot;font-size:12px;font-family:0;color:#000000;direction:ltr;letter-spacing:0px;line-height:120%;opacity:1&quot;&gt;+ consensusNodeIds&lt;br/&gt;&lt;/font&gt;&lt;font style=&quot;font-size:12px;font-family:0;color:#000000;direction:ltr;letter-spacing:0px;line-height:120%;opacity:1&quot;&gt;+ ac&lt;br/&gt;&lt;/font&gt;&lt;font style=&quot;font-size:12px;font-family:0;color:#000000;direction:ltr;letter-spacing:0px;line-height:120%;opacity:1&quot;&gt;+ revokeNodeIds&lt;br/&gt;&lt;/font&gt;&lt;font style=&quot;font-size:12px;font-family:0;color:#000000;direction:ltr;letter-spacing:0px;line-height:120%;opacity:1&quot;&gt;+ vmWatcher&lt;/font&gt;&lt;/p&gt;&lt;/div&gt;" style="verticalAlign=middle;align=left;overflow=width;vsdxID=3;fillColor=none;gradientColor=none;shape=stencil(UzV2Ls5ILEhVNTIoLinKz04tz0wpyVA1dlE1MsrMy0gtyiwBslSNXVWNndPyi1LTi/JL81Ig/IJEkEoQKze/DGRCBUSfAUiHkUElhGdoqmdmDBZxgyjOycxDUmxoQEA5kIGwCOJGuBxxLjAg3nYSlML4WBWTrdQAp9eBHPQIAApBIs/YFQA=);strokeColor=#000000;spacingTop=-3;spacingBottom=-3;spacingLeft=-3;spacingRight=-3;points=[];labelBackgroundColor=none;rounded=0;html=1;whiteSpace=wrap;" vertex="1" parent="OCKaOWb37HJy0MvpUXwd-1">
          <mxGeometry width="237" height="192" as="geometry" />
        </mxCell>
        <UserObject label="" tags="背景" id="OCKaOWb37HJy0MvpUXwd-4">
          <mxCell style="vsdxID=4;fillColor=none;gradientColor=none;points=[];labelBackgroundColor=none;rounded=0;strokeColor=none;html=1;whiteSpace=wrap;" vertex="1" parent="1">
            <mxGeometry x="1523" y="816" width="291" height="238" as="geometry" />
          </mxCell>
        </UserObject>
        <mxCell id="OCKaOWb37HJy0MvpUXwd-5" value="&lt;div style=&quot;font-size: 1px&quot;&gt;&lt;p style=&quot;text-align:center;margin-left:0;margin-right:0;margin-top:0px;margin-bottom:0px;text-indent:0;vertical-align:middle;direction:ltr;&quot;&gt;&lt;font style=&quot;font-size:12px;font-family:0;color:#000000;direction:ltr;letter-spacing:0px;line-height:120%;opacity:1&quot;&gt;&lt;b&gt;LibP2pNet&lt;/b&gt;&lt;/font&gt;&lt;/p&gt;&lt;/div&gt;" style="verticalAlign=middle;align=center;overflow=width;vsdxID=5;fillColor=#FFFFFF;gradientColor=none;shape=stencil(lVLLDoMgEPwargZ3E2vP1v6HiVhIrVh81P59paiAGpve9jHLzCxLMGl4VjMCtGmVvLOXyFtO8EIARMWZEu0YEUwJJoVU7KZkV+UmrzON1NFD9vqFwcxRPQH0bbIwiOJv4Wqwzy7LNTb0wX46wDyMpwkALmB6qxSVw3uOgwg9bnpAHNIf1Esf9o345Ba+iEH4h34pzAJcOytN+wrsrnbRx4vf0K/cb/z45Md/Pgb2WApRlubW3P76uMaSOUxMPw==);strokeColor=#000000;spacingTop=-3;spacingBottom=-3;spacingLeft=-3;spacingRight=-3;points=[];labelBackgroundColor=none;rounded=0;html=1;whiteSpace=wrap;" vertex="1" parent="OCKaOWb37HJy0MvpUXwd-4">
          <mxGeometry width="291" height="238" as="geometry" />
        </mxCell>
        <mxCell id="OCKaOWb37HJy0MvpUXwd-6" value="&lt;div style=&quot;font-size: 1px&quot;&gt;&lt;p style=&quot;text-align:left;margin-left:0;margin-right:0;margin-top:0px;margin-bottom:0px;text-indent:0;vertical-align:middle;direction:ltr;&quot;&gt;&lt;font style=&quot;font-size:12px;font-family:0;color:#000000;direction:ltr;letter-spacing:0px;line-height:120%;opacity:1&quot;&gt;&lt;br/&gt;&lt;/font&gt;&lt;font style=&quot;font-size:12px;font-family:0;color:#000000;direction:ltr;letter-spacing:0px;line-height:120%;opacity:1&quot;&gt;+ netType 网络类型(LibP2p/GRpc)&lt;br/&gt;&lt;/font&gt;&lt;font style=&quot;font-size:12px;font-family:0;color:#000000;direction:ltr;letter-spacing:0px;line-height:120%;opacity:1&quot;&gt;&lt;br/&gt;&lt;br/&gt;&lt;/font&gt;&lt;font style=&quot;font-size:12px;font-family:0;color:#000000;direction:ltr;letter-spacing:0px;line-height:120%;opacity:1&quot;&gt;+ libP2pHost  LibP2pHost&lt;br/&gt;&lt;/font&gt;&lt;font style=&quot;font-size:12px;font-family:0;color:#000000;direction:ltr;letter-spacing:0px;line-height:120%;opacity:1&quot;&gt;&lt;br/&gt;&lt;br/&gt;&lt;/font&gt;&lt;font style=&quot;font-size:12px;font-family:0;color:#000000;direction:ltr;letter-spacing:0px;line-height:120%;opacity:1&quot;&gt;+ startUp bool&lt;br/&gt;&lt;/font&gt;&lt;font style=&quot;font-size:12px;font-family:0;color:#000000;direction:ltr;letter-spacing:0px;line-height:120%;opacity:1&quot;&gt;&lt;br/&gt;&lt;br/&gt;&lt;/font&gt;&lt;font style=&quot;font-size:12px;font-family:0;color:#000000;direction:ltr;letter-spacing:0px;line-height:120%;opacity:1&quot;&gt;+ pubSubs          sync.Map&lt;br/&gt;&lt;/font&gt;&lt;font style=&quot;font-size:12px;font-family:0;color:#000000;direction:ltr;letter-spacing:0px;line-height:120%;opacity:1&quot;&gt;&lt;br/&gt;&lt;br/&gt;&lt;/font&gt;&lt;font style=&quot;font-size:12px;font-family:0;color:#000000;direction:ltr;letter-spacing:0px;line-height:120%;opacity:1&quot;&gt;+messageHandlerDistributor &lt;br/&gt;&lt;/font&gt;&lt;font style=&quot;font-size:12px;font-family:0;color:#000000;direction:ltr;letter-spacing:0px;line-height:120%;opacity:1&quot;&gt;&lt;br/&gt;&lt;br/&gt;&lt;/font&gt;&lt;font style=&quot;font-size:12px;font-family:0;color:#000000;direction:ltr;letter-spacing:0px;line-height:120%;opacity:1&quot;&gt;+ subscribedTopics&lt;br/&gt;&lt;/font&gt;&lt;font style=&quot;font-size:12px;font-family:0;color:#000000;direction:ltr;letter-spacing:0px;line-height:120%;opacity:1&quot;&gt;&lt;br/&gt;&lt;/font&gt;&lt;/p&gt;&lt;/div&gt;" style="verticalAlign=middle;align=left;overflow=width;vsdxID=6;fillColor=none;gradientColor=none;shape=stencil(UzV2Ls5ILEhVNTIoLinKz04tz0wpyVA1dlE1MsrMy0gtyiwBslSNXVWNndPyi1LTi/JL81Ig/IJEkEoQKze/DGRCBUSfAUiHkUElhGdopGdmCBZxgyjOycxDUmxoQEA5kIGwCOJGuBxxLjAg3nYSlML4WBWTrdQAp9eBHPQIAApBIs/YFQA=);strokeColor=#000000;spacingTop=-3;spacingBottom=-3;spacingLeft=-3;spacingRight=-3;points=[];labelBackgroundColor=none;rounded=0;html=1;whiteSpace=wrap;" vertex="1" parent="OCKaOWb37HJy0MvpUXwd-4">
          <mxGeometry width="291" height="238" as="geometry" />
        </mxCell>
        <UserObject label="&lt;div style=&quot;font-size: 1px&quot;&gt;&lt;p style=&quot;text-align:center;margin-left:0;margin-right:0;margin-top:0px;margin-bottom:0px;text-indent:0;vertical-align:middle;direction:ltr;&quot;&gt;&lt;font style=&quot;font-size:12px;font-family:0;color:#000000;direction:ltr;letter-spacing:0px;line-height:120%;opacity:1&quot;&gt;&lt;b&gt;Net&lt;br/&gt;&lt;/b&gt;&lt;/font&gt;&lt;font style=&quot;font-size:12px;font-family:0;color:#000000;direction:ltr;letter-spacing:0px;line-height:120%;opacity:1&quot;&gt;&lt;b&gt;发布订阅/发送信息/权限控制&lt;/b&gt;&lt;/font&gt;&lt;/p&gt;&lt;/div&gt;" tags="Background" id="OCKaOWb37HJy0MvpUXwd-7">
          <mxCell style="verticalAlign=middle;align=center;overflow=width;vsdxID=7;fillColor=#FFFFFF;gradientColor=none;shape=stencil(hVLbEoIgEP0aXhlc1OrZ7D+cEZPJxFDL/j5pTUEdetvLWc45yxKetGXWCAKs7bS6iZfMu5LwMwGQdSm07MaI8JTwpFBaXLXq6xzzJjNIE93V07ww4BwzE8DemMU0jL6FC2IffZYbbOCC3XQATAN6CCcA2IDprUrWFu/pSCF2uJmHOGB/qOc+7BtxyRf4JIbTyOd7Qz8XfgJsOytN+wqWXe2i/Yvf0K/cb/y45P4/H4PlWApZVXhrdn99XGMJD5OnHw==);strokeColor=#000000;spacingTop=-3;spacingBottom=-3;spacingLeft=-3;spacingRight=-3;points=[];labelBackgroundColor=none;rounded=0;html=1;whiteSpace=wrap;" vertex="1" parent="1">
            <mxGeometry x="1554" y="601" width="230" height="62" as="geometry" />
          </mxCell>
        </UserObject>
        <UserObject label="" tags="Background" id="OCKaOWb37HJy0MvpUXwd-8">
          <mxCell style="vsdxID=8;fillColor=none;gradientColor=none;shape=stencil(hU9bDoAgDDvNfg2w6AVQ72EiClHBIL5uL7gPjT/+tV27dYBy0c2sQLAleDeo3bRBA5YghLFaeRMiAqwAZee86r1bbUt8bpIzocltacNBOZYSgp3Ecp4V/FZqMo/Gvsyc/dgjeA5Rx/fsWypK9BBWFw==);strokeColor=#000000;spacingTop=-3;spacingBottom=-3;spacingLeft=-3;spacingRight=-3;points=[];labelBackgroundColor=none;rounded=0;html=1;whiteSpace=wrap;" vertex="1" parent="1">
            <mxGeometry x="1554" y="601" width="230" height="62" as="geometry" />
          </mxCell>
        </UserObject>
        <UserObject label="" tags="Background" id="OCKaOWb37HJy0MvpUXwd-9">
          <mxCell style="vsdxID=9;fillColor=none;gradientColor=none;shape=stencil(nZBLDoAgDAVP0z3SIyjeg0SURgWD+Lu9EGL8xBW7N828Ji1gOWs5KeBs9s72aqPGa8AKOCejlSMfEqAALFvrVOfsYprEk4xmTKNd44Y99VhscHY8qU7iQOYhFixbvfhXzlZfYgj3hQG+54dReh2KEw==);strokeColor=none;strokeWidth=0;spacingTop=-3;spacingBottom=-3;spacingLeft=-3;spacingRight=-3;points=[];labelBackgroundColor=none;rounded=0;html=1;whiteSpace=wrap;" vertex="1" parent="1">
            <mxGeometry x="1554" y="601" width="230" height="62" as="geometry" />
          </mxCell>
        </UserObject>
        <UserObject label="&lt;div style=&quot;font-size: 1px&quot;&gt;&lt;p style=&quot;text-align:center;margin-left:0;margin-right:0;margin-top:0px;margin-bottom:0px;text-indent:0;vertical-align:middle;direction:ltr;&quot;&gt;&lt;font style=&quot;font-size:12px;font-family:0;color:#000000;direction:ltr;letter-spacing:0px;line-height:120%;opacity:1&quot;&gt;Net&lt;/font&gt;&lt;/p&gt;&lt;/div&gt;" tags="Background" id="OCKaOWb37HJy0MvpUXwd-10">
          <mxCell style="verticalAlign=middle;align=center;overflow=width;vsdxID=10;fillColor=#FFFFFF;gradientColor=none;shape=stencil(lVJBEoIwDHxNr502dbSeEf/BDEU6IsUCir+XGpQWEMdbNtl0k3SJiOo8qRQBVjfWnNVdp01OxIEA6DJXVjd9RERMRJQZq07WtGWKuEoc00UXc3MvdNjHXAewByIuKZevzBHJ1zZJHZmH7BB2gHBH5WYggE8Y3ip06QnvgfJtIM5WhDlblx7r8GWTUH3kI5acSvhH/5N4T+DvMxlqcQLvWIvs9cvP5Cfrz/YJxX/8eh+Mfsl0UaDd/PrUX30KvSniJw==);strokeColor=#000000;spacingTop=-3;spacingBottom=-3;spacingLeft=-3;spacingRight=-3;points=[];labelBackgroundColor=none;rounded=0;html=1;whiteSpace=wrap;" vertex="1" parent="1">
            <mxGeometry x="1223" y="621" width="51" height="22" as="geometry" />
          </mxCell>
        </UserObject>
        <UserObject label="&lt;div style=&quot;font-size: 1px&quot;&gt;&lt;p style=&quot;text-align:center;margin-left:0;margin-right:0;margin-top:0px;margin-bottom:0px;text-indent:0;vertical-align:middle;direction:ltr;&quot;&gt;&lt;font style=&quot;font-size:12px;font-family:0;color:#000000;direction:ltr;letter-spacing:0px;line-height:120%;opacity:1&quot;&gt;LibP2pHost&lt;/font&gt;&lt;/p&gt;&lt;/div&gt;" tags="Background" id="OCKaOWb37HJy0MvpUXwd-11">
          <mxCell style="verticalAlign=middle;align=center;overflow=width;vsdxID=11;fillColor=#FFFFFF;gradientColor=none;shape=stencil(lVJBEoIwDHxNr5021bGcEf/BDEU6IsUKir+XGpQWEMdbNtl0k3SJiK9FWisC7NpYc1J3nTUFEXsCoKtCWd30EREJEXFurDpa01YZ4jp1TBedzc290GEfcx3AHoi4pFy+MgckX9o0c2QeskPYAcINBT4QwCcMb5W68oSjLd1FgThbEeZsXXqsw5dNQvWRj1hyKuEf/U/iPYG/z2SoxQm8Yy2y1y8/k5+sP9snFP/x630w+iXXZYl28+tTf/Up9KZIng==);strokeColor=#000000;spacingTop=-3;spacingBottom=-3;spacingLeft=-3;spacingRight=-3;points=[];labelBackgroundColor=none;rounded=0;html=1;whiteSpace=wrap;" vertex="1" parent="1">
            <mxGeometry x="1621" y="896" width="95" height="22" as="geometry" />
          </mxCell>
        </UserObject>
        <UserObject label="" tags="背景" id="OCKaOWb37HJy0MvpUXwd-12">
          <mxCell style="vsdxID=12;fillColor=none;gradientColor=none;points=[];labelBackgroundColor=none;rounded=0;strokeColor=none;html=1;whiteSpace=wrap;" vertex="1" parent="1">
            <mxGeometry x="2091" y="855" width="283" height="162" as="geometry" />
          </mxCell>
        </UserObject>
        <mxCell id="OCKaOWb37HJy0MvpUXwd-13" value="&lt;div style=&quot;font-size: 1px&quot;&gt;&lt;p style=&quot;text-align:center;margin-left:0;margin-right:0;margin-top:0px;margin-bottom:0px;text-indent:0;vertical-align:middle;direction:ltr;&quot;&gt;&lt;font style=&quot;font-size:12px;font-family:0;color:#000000;direction:ltr;letter-spacing:0px;line-height:120%;opacity:1&quot;&gt;&lt;b&gt;LibP2pHost&lt;/b&gt;&lt;/font&gt;&lt;/p&gt;&lt;/div&gt;" style="verticalAlign=middle;align=center;overflow=width;vsdxID=13;fillColor=#FFFFFF;gradientColor=none;shape=stencil(lVLRDoIwDPyavS5bJ0GeEf+DhCGLyHCA4t/LLMIGBONbr73url2JiJsirSUB1rRGX+VTZW1BxIkAqKqQRrVDRERCRJxrIy9Gd1WGuE4t00Y3/bAv9NjHbAewFyKgh/CTOCP33qWZ5XKf7MMeEHJ64CMBXML4VqkqRzc60iDytNmOMGc/pKc6bA/ii8/00UxIA/GP/JT4GnDHWXjadjDvapO9v/iV/GL61Ty++P6fD8F8LLkqS7w1t748riGFhymSNw==);strokeColor=#000000;spacingTop=-3;spacingBottom=-3;spacingLeft=-3;spacingRight=-3;points=[];labelBackgroundColor=none;rounded=0;html=1;whiteSpace=wrap;" vertex="1" parent="OCKaOWb37HJy0MvpUXwd-12">
          <mxGeometry width="283" height="162" as="geometry" />
        </mxCell>
        <mxCell id="OCKaOWb37HJy0MvpUXwd-14" value="&lt;div style=&quot;font-size: 1px&quot;&gt;&lt;p style=&quot;text-align:left;margin-left:0;margin-right:0;margin-top:0px;margin-bottom:0px;text-indent:0;vertical-align:middle;direction:ltr;&quot;&gt;&lt;font style=&quot;font-size:12px;font-family:0;color:#000000;direction:ltr;letter-spacing:0px;line-height:120%;opacity:1&quot;&gt;&lt;br/&gt;&lt;/font&gt;&lt;font style=&quot;font-size:12px;font-family:0;color:#000000;direction:ltr;letter-spacing:0px;line-height:120%;opacity:1&quot;&gt;+ host&lt;br/&gt;&lt;/font&gt;&lt;font style=&quot;font-size:12px;font-family:0;color:#000000;direction:ltr;letter-spacing:0px;line-height:120%;opacity:1&quot;&gt;&lt;br/&gt;&lt;br/&gt;&lt;/font&gt;&lt;font style=&quot;font-size:12px;font-family:0;color:#000000;direction:ltr;letter-spacing:0px;line-height:120%;opacity:1&quot;&gt;+ connManager&lt;br/&gt;&lt;/font&gt;&lt;font style=&quot;font-size:12px;font-family:0;color:#000000;direction:ltr;letter-spacing:0px;line-height:120%;opacity:1&quot;&gt;&lt;br/&gt;&lt;br/&gt;&lt;/font&gt;&lt;font style=&quot;font-size:12px;font-family:0;color:#000000;direction:ltr;letter-spacing:0px;line-height:120%;opacity:1&quot;&gt;+ &lt;br/&gt;&lt;/font&gt;&lt;font style=&quot;font-size:12px;font-family:0;color:#000000;direction:ltr;letter-spacing:0px;line-height:120%;opacity:1&quot;&gt;&lt;br/&gt;&lt;br/&gt;&lt;/font&gt;&lt;font style=&quot;font-size:12px;font-family:0;color:#000000;direction:ltr;letter-spacing:0px;line-height:120%;opacity:1&quot;&gt;&lt;br/&gt;&lt;/font&gt;&lt;/p&gt;&lt;/div&gt;" style="verticalAlign=middle;align=left;overflow=width;vsdxID=14;fillColor=none;gradientColor=none;shape=stencil(UzV2Ls5ILEhVNTIoLinKz04tz0wpyVA1dlE1MsrMy0gtyiwBslSNXVWNndPyi1LTi/JL81Ig/IJEkEoQKze/DGRCBUSfAUiHkUElhGdooWdqBBZxgyjOycxDUmxoQEA5kIGwCOJGuBxxLjAg3nYSlML4WBWTrdQAp9eBHPQIAApBIs/YFQA=);strokeColor=#000000;spacingTop=-3;spacingBottom=-3;spacingLeft=-3;spacingRight=-3;points=[];labelBackgroundColor=none;rounded=0;html=1;whiteSpace=wrap;" vertex="1" parent="OCKaOWb37HJy0MvpUXwd-12">
          <mxGeometry width="283" height="162" as="geometry" />
        </mxCell>
        <UserObject label="&lt;div style=&quot;font-size: 1px&quot;&gt;&lt;p style=&quot;text-align:center;margin-left:0;margin-right:0;margin-top:0px;margin-bottom:0px;text-indent:0;vertical-align:middle;direction:ltr;&quot;&gt;&lt;font style=&quot;font-size:12px;font-family:0;color:#000000;direction:ltr;letter-spacing:0px;line-height:120%;opacity:1&quot;&gt;Host &lt;/font&gt;&lt;/p&gt;&lt;/div&gt;" tags="Background" id="OCKaOWb37HJy0MvpUXwd-15">
          <mxCell style="verticalAlign=middle;align=center;overflow=width;vsdxID=15;fillColor=#FFFFFF;gradientColor=none;shape=stencil(lVJBEoIwDHxNr5021bGcEf/BDEU6IsUKir+XGpQWEMdbNtl0k3SJiK9FWisC7NpYc1J3nTUFEXsCoKtCWd30EREJEXFurDpa01YZ4jp1TBedzc290GEfcx3AHoi4pFy+MgckX9o0c2QeskPYAcINBT4QwCcMb5W68oSjLd1FgThbEeZsXXqsw5dNQvWRj1hyKuEf/U/iPYG/z2SoxQm8Yy2y1y8/k5+sP9snFP/x630w+iXXZYl28+tTf/Up9KZIng==);strokeColor=#000000;spacingTop=-3;spacingBottom=-3;spacingLeft=-3;spacingRight=-3;points=[];labelBackgroundColor=none;rounded=0;html=1;whiteSpace=wrap;" vertex="1" parent="1">
            <mxGeometry x="2154" y="896" width="95" height="22" as="geometry" />
          </mxCell>
        </UserObject>
        <UserObject label="" tags="背景" id="OCKaOWb37HJy0MvpUXwd-16">
          <mxCell style="vsdxID=16;fillColor=none;gradientColor=none;points=[];labelBackgroundColor=none;rounded=0;strokeColor=none;html=1;whiteSpace=wrap;" vertex="1" parent="1">
            <mxGeometry x="2625" y="880" width="230" height="430" as="geometry" />
          </mxCell>
        </UserObject>
        <mxCell id="OCKaOWb37HJy0MvpUXwd-17" value="&lt;div style=&quot;font-size: 1px&quot;&gt;&lt;p style=&quot;text-align:center;margin-left:0;margin-right:0;margin-top:0px;margin-bottom:0px;text-indent:0;vertical-align:middle;direction:ltr;&quot;&gt;&lt;font style=&quot;font-size:12px;font-family:0;color:#000000;direction:ltr;letter-spacing:0px;line-height:120%;opacity:1&quot;&gt;&lt;b&gt;Host&lt;/b&gt;&lt;/font&gt;&lt;/p&gt;&lt;/div&gt;" style="verticalAlign=middle;align=center;overflow=width;vsdxID=17;fillColor=#FFFFFF;gradientColor=none;shape=stencil(lVLbEoIgEP0aXhlcmsxns/9wRkwmE8NL9vdBkAI6Nr3t2T3LObssomlX5S1DQLpeiht78qKvED0jAN5UTPJeRYhmiKalkOwqxdAUBre5ZuroLkb9wmT6iO4A8rIIJ/STuBjuY8gLzY18sg8nMDDC8cESwCXYt2reOLrJCcPR194RjsgP6bkO24P44gvdmkkwif+RnxNfA+44gadtB8uuNtn7i1/JB9Ov5vHF9/9cBcuxlLyuza259fC4VMocJs3e);strokeColor=#000000;spacingTop=-3;spacingBottom=-3;spacingLeft=-3;spacingRight=-3;points=[];labelBackgroundColor=none;rounded=0;html=1;whiteSpace=wrap;" vertex="1" parent="OCKaOWb37HJy0MvpUXwd-16">
          <mxGeometry width="230" height="430" as="geometry" />
        </mxCell>
        <mxCell id="OCKaOWb37HJy0MvpUXwd-18" value="&lt;div style=&quot;font-size: 1px&quot;&gt;&lt;p style=&quot;text-align:left;margin-left:0;margin-right:0;margin-top:0px;margin-bottom:0px;text-indent:0;vertical-align:middle;direction:ltr;&quot;&gt;&lt;font style=&quot;font-size:12px;font-family:0;color:#000000;direction:ltr;letter-spacing:0px;line-height:120%;opacity:1&quot;&gt;&lt;br/&gt;&lt;/font&gt;&lt;font style=&quot;font-size:12px;font-family:0;color:#000000;direction:ltr;letter-spacing:0px;line-height:120%;opacity:1&quot;&gt;+ ID() peer.ID&lt;br/&gt;&lt;/font&gt;&lt;font style=&quot;font-size:12px;font-family:0;color:#000000;direction:ltr;letter-spacing:0px;line-height:120%;opacity:1&quot;&gt;&lt;br/&gt;&lt;br/&gt;&lt;/font&gt;&lt;font style=&quot;font-size:12px;font-family:0;color:#000000;direction:ltr;letter-spacing:0px;line-height:120%;opacity:1&quot;&gt;+ Peerstore() peerstore.Peerstore&lt;br/&gt;&lt;/font&gt;&lt;font style=&quot;font-size:12px;font-family:0;color:#000000;direction:ltr;letter-spacing:0px;line-height:120%;opacity:1&quot;&gt;&lt;br/&gt;&lt;br/&gt;&lt;/font&gt;&lt;font style=&quot;font-size:12px;font-family:0;color:#000000;direction:ltr;letter-spacing:0px;line-height:120%;opacity:1&quot;&gt;+ Addrs() []ma.Multiaddr&lt;br/&gt;&lt;/font&gt;&lt;font style=&quot;font-size:12px;font-family:0;color:#000000;direction:ltr;letter-spacing:0px;line-height:120%;opacity:1&quot;&gt;&lt;br/&gt;&lt;br/&gt;&lt;/font&gt;&lt;font style=&quot;font-size:12px;font-family:0;color:#000000;direction:ltr;letter-spacing:0px;line-height:120%;opacity:1&quot;&gt;+ Network() network.Network&lt;br/&gt;&lt;/font&gt;&lt;font style=&quot;font-size:12px;font-family:0;color:#000000;direction:ltr;letter-spacing:0px;line-height:120%;opacity:1&quot;&gt;&lt;br/&gt;&lt;br/&gt;&lt;/font&gt;&lt;font style=&quot;font-size:12px;font-family:0;color:#000000;direction:ltr;letter-spacing:0px;line-height:120%;opacity:1&quot;&gt;+ Mux() protocol.Switch&lt;br/&gt;&lt;/font&gt;&lt;font style=&quot;font-size:12px;font-family:0;color:#000000;direction:ltr;letter-spacing:0px;line-height:120%;opacity:1&quot;&gt;&lt;br/&gt;&lt;br/&gt;&lt;/font&gt;&lt;font style=&quot;font-size:12px;font-family:0;color:#000000;direction:ltr;letter-spacing:0px;line-height:120%;opacity:1&quot;&gt;+ Connect(ctx context.Context, pi peer.AddrInfo) error&lt;br/&gt;&lt;/font&gt;&lt;font style=&quot;font-size:12px;font-family:0;color:#000000;direction:ltr;letter-spacing:0px;line-height:120%;opacity:1&quot;&gt;&lt;br/&gt;&lt;br/&gt;&lt;/font&gt;&lt;font style=&quot;font-size:12px;font-family:0;color:#000000;direction:ltr;letter-spacing:0px;line-height:120%;opacity:1&quot;&gt;+ NewStream(ctx context.Context, p peer.ID, pids ...protocol.ID) (network.Stream, error)&lt;br/&gt;&lt;/font&gt;&lt;font style=&quot;font-size:12px;font-family:0;color:#000000;direction:ltr;letter-spacing:0px;line-height:120%;opacity:1&quot;&gt;&lt;br/&gt;&lt;br/&gt;&lt;/font&gt;&lt;font style=&quot;font-size:12px;font-family:0;color:#000000;direction:ltr;letter-spacing:0px;line-height:120%;opacity:1&quot;&gt;+ ConnManager() connmgr.ConnManager&lt;br/&gt;&lt;/font&gt;&lt;font style=&quot;font-size:12px;font-family:0;color:#000000;direction:ltr;letter-spacing:0px;line-height:120%;opacity:1&quot;&gt;&lt;br/&gt;&lt;br/&gt;&lt;/font&gt;&lt;font style=&quot;font-size:12px;font-family:0;color:#000000;direction:ltr;letter-spacing:0px;line-height:120%;opacity:1&quot;&gt;+ EventBus() event.Bus&lt;br/&gt;&lt;/font&gt;&lt;font style=&quot;font-size:12px;font-family:0;color:#000000;direction:ltr;letter-spacing:0px;line-height:120%;opacity:1&quot;&gt;&lt;br/&gt;&lt;br/&gt;&lt;/font&gt;&lt;font style=&quot;font-size:12px;font-family:0;color:#000000;direction:ltr;letter-spacing:0px;line-height:120%;opacity:1&quot;&gt;&lt;br/&gt;&lt;/font&gt;&lt;/p&gt;&lt;/div&gt;" style="verticalAlign=middle;align=left;overflow=width;vsdxID=18;fillColor=none;gradientColor=none;shape=stencil(UzV2Ls5ILEhVNTIoLinKz04tz0wpyVA1dlE1MsrMy0gtyiwBslSNXVWNndPyi1LTi/JL81Ig/IJEkEoQKze/DGRCBUSfAUiHkUElhGemZ2kBFnCDqM3JzENSa2iAXzWQgbAG4kK4HHH2GxBvOQlKYXysislWaoDT60AOevADhSBRZ+wKAA==);strokeColor=#000000;spacingTop=-3;spacingBottom=-3;spacingLeft=-3;spacingRight=-3;points=[];labelBackgroundColor=none;rounded=0;html=1;whiteSpace=wrap;" vertex="1" parent="OCKaOWb37HJy0MvpUXwd-16">
          <mxGeometry width="230" height="430" as="geometry" />
        </mxCell>
        <UserObject label="&lt;div style=&quot;font-size: 1px&quot;&gt;&lt;p style=&quot;text-align:center;margin-left:0;margin-right:0;margin-top:0px;margin-bottom:0px;text-indent:0;vertical-align:middle;direction:ltr;&quot;&gt;&lt;font style=&quot;font-size:12px;font-family:0;color:#000000;direction:ltr;letter-spacing:0px;line-height:120%;opacity:1&quot;&gt;PeerConnManager &lt;/font&gt;&lt;/p&gt;&lt;/div&gt;" tags="Background" id="OCKaOWb37HJy0MvpUXwd-19">
          <mxCell style="verticalAlign=middle;align=center;overflow=width;vsdxID=19;fillColor=#FFFFFF;gradientColor=none;shape=stencil(jZLdEoIgEIWfhlsHlovo2uw9nBGTycTwJ3v7pJUENetuz+6BbxeW8Lgp0loSoE1r9FU+VNYWhJ8IgKoKaVQ7RoQnhMe5NvJidFdlqOvUOm100729YcBz1J4A+kTFRMTEO3NG871LM2tmoTuUA6CESMBkAN8w3VWqygMfDw7l4HQHzOg+eq7Dl0lC+uxHLZjr/U/+J+E68OdZNLXZgfdYm+79l1/hF+Ov5gnhP359DOZ9yVVZ4rr59eV+jSncTZ68AA==);strokeColor=#000000;spacingTop=-3;spacingBottom=-3;spacingLeft=-3;spacingRight=-3;points=[];labelBackgroundColor=none;rounded=0;html=1;whiteSpace=wrap;" vertex="1" parent="1">
            <mxGeometry x="2215" y="931" width="142" height="22" as="geometry" />
          </mxCell>
        </UserObject>
        <UserObject label="" tags="背景" id="OCKaOWb37HJy0MvpUXwd-20">
          <mxCell style="vsdxID=20;fillColor=none;gradientColor=none;points=[];labelBackgroundColor=none;rounded=0;strokeColor=none;html=1;whiteSpace=wrap;" vertex="1" parent="1">
            <mxGeometry x="2460" y="1650" width="268" height="192" as="geometry" />
          </mxCell>
        </UserObject>
        <mxCell id="OCKaOWb37HJy0MvpUXwd-21" value="&lt;div style=&quot;font-size: 1px&quot;&gt;&lt;p style=&quot;text-align:center;margin-left:0;margin-right:0;margin-top:0px;margin-bottom:0px;text-indent:0;vertical-align:middle;direction:ltr;&quot;&gt;&lt;font style=&quot;font-size:12px;font-family:0;color:#000000;direction:ltr;letter-spacing:0px;line-height:120%;opacity:1&quot;&gt;&lt;b&gt;PeerConnManager&lt;/b&gt;&lt;/font&gt;&lt;/p&gt;&lt;/div&gt;" style="verticalAlign=middle;align=center;overflow=width;vsdxID=21;fillColor=#FFFFFF;gradientColor=none;shape=stencil(lVLLEoIwDPyaXjttqiOcEf+DGYp0RIrlIf691CC0wOB4yyab7iYNEVGdJ5UkwOrG6Jt8qrTJiTgTAFXm0qhmiIiIiYgybeTV6LZMEVeJZdrorjv7Qo99zHYAeyECyoJP4oLcR5uklst9sg97QMjpIRwJ4BLGtwpVOrphQI/c02Y7wpz9kJ7qsD2ILz7TRzMnGsI/8lPia8AdZ+Fp28G8q032/uJX8ovpV/P44vt/PgTzsWSqKPDW3PryuIYUHqaI3w==);strokeColor=#000000;spacingTop=-3;spacingBottom=-3;spacingLeft=-3;spacingRight=-3;points=[];labelBackgroundColor=none;rounded=0;html=1;whiteSpace=wrap;" vertex="1" parent="OCKaOWb37HJy0MvpUXwd-20">
          <mxGeometry width="268" height="192" as="geometry" />
        </mxCell>
        <mxCell id="OCKaOWb37HJy0MvpUXwd-22" value="&lt;div style=&quot;font-size: 1px&quot;&gt;&lt;p style=&quot;text-align:left;margin-left:0;margin-right:0;margin-top:0px;margin-bottom:0px;text-indent:0;vertical-align:middle;direction:ltr;&quot;&gt;&lt;font style=&quot;font-size:12px;font-family:0;color:#000000;direction:ltr;letter-spacing:0px;line-height:120%;opacity:1&quot;&gt;+ maxSize&lt;br/&gt;&lt;/font&gt;&lt;font style=&quot;font-size:12px;font-family:0;color:#000000;direction:ltr;letter-spacing:0px;line-height:120%;opacity:1&quot;&gt;&lt;br/&gt;&lt;br/&gt;&lt;/font&gt;&lt;font style=&quot;font-size:12px;font-family:0;color:#000000;direction:ltr;letter-spacing:0px;line-height:120%;opacity:1&quot;&gt;+ strategy&lt;br/&gt;&lt;/font&gt;&lt;font style=&quot;font-size:12px;font-family:0;color:#000000;direction:ltr;letter-spacing:0px;line-height:120%;opacity:1&quot;&gt;&lt;br/&gt;&lt;br/&gt;&lt;/font&gt;&lt;font style=&quot;font-size:12px;font-family:0;color:#000000;direction:ltr;letter-spacing:0px;line-height:120%;opacity:1&quot;&gt;+ highLevelPeers&lt;br/&gt;&lt;/font&gt;&lt;font style=&quot;font-size:12px;font-family:0;color:#000000;direction:ltr;letter-spacing:0px;line-height:120%;opacity:1&quot;&gt;&lt;br/&gt;&lt;br/&gt;&lt;/font&gt;&lt;font style=&quot;font-size:12px;font-family:0;color:#000000;direction:ltr;letter-spacing:0px;line-height:120%;opacity:1&quot;&gt;+ highLevelConn&lt;br/&gt;&lt;/font&gt;&lt;font style=&quot;font-size:12px;font-family:0;color:#000000;direction:ltr;letter-spacing:0px;line-height:120%;opacity:1&quot;&gt;&lt;br/&gt;&lt;br/&gt;&lt;/font&gt;&lt;font style=&quot;font-size:12px;font-family:0;color:#000000;direction:ltr;letter-spacing:0px;line-height:120%;opacity:1&quot;&gt;+ lowLevelConn&lt;br/&gt;&lt;br/&gt;&lt;/font&gt;&lt;font style=&quot;font-size:12px;font-family:0;color:#000000;direction:ltr;letter-spacing:0px;line-height:120%;opacity:1&quot;&gt;&lt;br/&gt;&lt;/font&gt;&lt;/p&gt;&lt;/div&gt;" style="verticalAlign=middle;align=left;overflow=width;vsdxID=22;fillColor=none;gradientColor=none;shape=stencil(UzV2Ls5ILEhVNTIoLinKz04tz0wpyVA1dlE1MsrMy0gtyiwBslSNXVWNndPyi1LTi/JL81Ig/IJEkEoQKze/DGRCBUSfAUiHkUElhGdoqmdmDBZxgyjOycxDUmxoQEA5kIGwCOJGuBxxLjAg3nYSlML4WBWTrdQAp9eBHPQIAApBIs/YFQA=);strokeColor=#000000;spacingTop=-3;spacingBottom=-3;spacingLeft=-3;spacingRight=-3;points=[];labelBackgroundColor=none;rounded=0;html=1;whiteSpace=wrap;" vertex="1" parent="OCKaOWb37HJy0MvpUXwd-20">
          <mxGeometry width="268" height="192" as="geometry" />
        </mxCell>
        <UserObject label="&lt;div style=&quot;font-size: 1px&quot;&gt;&lt;p style=&quot;text-align:center;margin-left:0;margin-right:0;margin-top:0px;margin-bottom:0px;text-indent:0;vertical-align:middle;direction:ltr;&quot;&gt;&lt;font style=&quot;font-size:12px;font-family:0;color:#000000;direction:ltr;letter-spacing:0px;line-height:120%;opacity:1&quot;&gt;peerConnections &lt;/font&gt;&lt;/p&gt;&lt;/div&gt;" tags="Background" id="OCKaOWb37HJy0MvpUXwd-23">
          <mxCell style="verticalAlign=middle;align=center;overflow=width;vsdxID=23;fillColor=#FFFFFF;gradientColor=none;shape=stencil(jZLdEoIgEIWfhlsHlovo2uw9nBGTycTwJ3v7pJUENetuz+6BbxeW8Lgp0loSoE1r9FU+VNYWhJ8IgKoKaVQ7RoQnhMe5NvJidFdlqOvUOm100729YcBz1J4A+kTFRMTEO3NG871LM2tmoTuUA6CESMBkAN8w3VWqygMfDw7l4HQHzOg+eq7Dl0lC+uxHLZjr/U/+J+E68OdZNLXZgfdYm+79l1/hF+Ov5gnhP359DOZ9yVVZ4rr59eV+jSncTZ68AA==);strokeColor=#000000;spacingTop=-3;spacingBottom=-3;spacingLeft=-3;spacingRight=-3;points=[];labelBackgroundColor=none;rounded=0;html=1;whiteSpace=wrap;" vertex="1" parent="1">
            <mxGeometry x="2597" y="1762" width="142" height="22" as="geometry" />
          </mxCell>
        </UserObject>
        <UserObject label="" tags="背景" id="OCKaOWb37HJy0MvpUXwd-24">
          <mxCell style="vsdxID=24;fillColor=none;gradientColor=none;points=[];labelBackgroundColor=none;rounded=0;strokeColor=none;html=1;whiteSpace=wrap;" vertex="1" parent="1">
            <mxGeometry x="2920" y="1697" width="412" height="149" as="geometry" />
          </mxCell>
        </UserObject>
        <mxCell id="OCKaOWb37HJy0MvpUXwd-25" value="&lt;div style=&quot;font-size: 1px&quot;&gt;&lt;p style=&quot;text-align:center;margin-left:0;margin-right:0;margin-top:0px;margin-bottom:0px;text-indent:0;vertical-align:middle;direction:ltr;&quot;&gt;&lt;font style=&quot;font-size:12px;font-family:0;color:#000000;direction:ltr;letter-spacing:0px;line-height:120%;opacity:1&quot;&gt;&lt;b&gt;peerConnections&lt;/b&gt;&lt;/font&gt;&lt;/p&gt;&lt;/div&gt;" style="verticalAlign=middle;align=center;overflow=width;vsdxID=25;fillColor=#FFFFFF;gradientColor=none;shape=stencil(lVLRDoMgDPwaXgm2yZzPzv2HiTjJnDjUzf39ZLAJaEj21muv3LWUYD40Zc8JsGFU8sqfohobgicCILqGKzEuEcGCYF5LxS9KTl1lcF9qpo5u8qFfmE0f0x3AXgYBPRw/ibPh3qey0tzEJ/twBgtplloCuAT7Vis6RzfLKENPm0WEExaXXuuwP4gvvtKtmZQi/CP/S3wNuOMEnnYdOLvaZccXv5EPpt/ME4hH/3wJ1mOpRduaW3Pr4XEtKXOYWLwB);strokeColor=#000000;spacingTop=-3;spacingBottom=-3;spacingLeft=-3;spacingRight=-3;points=[];labelBackgroundColor=none;rounded=0;html=1;whiteSpace=wrap;" vertex="1" parent="OCKaOWb37HJy0MvpUXwd-24">
          <mxGeometry width="412" height="149" as="geometry" />
        </mxCell>
        <mxCell id="OCKaOWb37HJy0MvpUXwd-26" value="&lt;div style=&quot;font-size: 1px&quot;&gt;&lt;p style=&quot;text-align:left;margin-left:0;margin-right:0;margin-top:0px;margin-bottom:0px;text-indent:0;vertical-align:middle;direction:ltr;&quot;&gt;&lt;font style=&quot;font-size:12px;font-family:0;color:#000000;direction:ltr;letter-spacing:0px;line-height:120%;opacity:1&quot;&gt;&lt;br/&gt;&lt;/font&gt;&lt;font style=&quot;font-size:12px;font-family:0;color:#000000;direction:ltr;letter-spacing:0px;line-height:120%;opacity:1&quot;&gt;+ pid  peer.ID&lt;br/&gt;&lt;/font&gt;&lt;font style=&quot;font-size:12px;font-family:0;color:#000000;direction:ltr;letter-spacing:0px;line-height:120%;opacity:1&quot;&gt;&lt;br/&gt;&lt;br/&gt;&lt;/font&gt;&lt;font style=&quot;font-size:12px;font-family:0;color:#000000;direction:ltr;letter-spacing:0px;line-height:120%;opacity:1&quot;&gt;+ conn map[network.Conn]struct{}&lt;br/&gt;&lt;/font&gt;&lt;font style=&quot;font-size:12px;font-family:0;color:#000000;direction:ltr;letter-spacing:0px;line-height:120%;opacity:1&quot;&gt;&lt;br/&gt;&lt;br/&gt;&lt;/font&gt;&lt;font style=&quot;font-size:12px;font-family:0;color:#000000;direction:ltr;letter-spacing:0px;line-height:120%;opacity:1&quot;&gt;&lt;br/&gt;&lt;/font&gt;&lt;/p&gt;&lt;/div&gt;" style="verticalAlign=middle;align=left;overflow=width;vsdxID=26;fillColor=none;gradientColor=none;shape=stencil(nZFJDoMwDEVP421l7CNQuAcSaRMVEhTS6fYktdoiBGLY/W8/TzJw3uuqU0DYB+9u6mnqoIHPQGSsVt6EqIAL4PzivLp6d7e1+K5KZFKte6QOL6nDVEH4Fkd4yvgTKQVujB3BGa7gUfwHyY6/3LYNcPv0HejXz8KHUVw8PZrpA2JInsfFAA==);strokeColor=#000000;spacingTop=-3;spacingBottom=-3;spacingLeft=-3;spacingRight=-3;points=[];labelBackgroundColor=none;rounded=0;html=1;whiteSpace=wrap;" vertex="1" parent="OCKaOWb37HJy0MvpUXwd-24">
          <mxGeometry width="412" height="149" as="geometry" />
        </mxCell>
        <UserObject label="&lt;div style=&quot;font-size: 1px&quot;&gt;&lt;p style=&quot;text-align:center;margin-left:0;margin-right:0;margin-top:0px;margin-bottom:0px;text-indent:0;vertical-align:middle;direction:ltr;&quot;&gt;&lt;font style=&quot;font-size:12px;font-family:0;color:#000000;direction:ltr;letter-spacing:0px;line-height:120%;opacity:1&quot;&gt;Conn&lt;/font&gt;&lt;/p&gt;&lt;/div&gt;" tags="Background" id="OCKaOWb37HJy0MvpUXwd-27">
          <mxCell style="verticalAlign=middle;align=center;overflow=width;vsdxID=27;fillColor=#FFFFFF;gradientColor=none;shape=stencil(jZLdEoIgEIWfhlsHlovo2uw9nBGTycTwJ3v7pJUENetuz+6BbxeW8Lgp0loSoE1r9FU+VNYWhJ8IgKoKaVQ7RoQnhMe5NvJidFdlqOvUOm100729YcBz1J4A+kTFRMTEO3NG871LM2tmoTuUA6CESMBkAN8w3VWqygMfDw7l4HQHzOg+eq7Dl0lC+uxHLZjr/U/+J+E68OdZNLXZgfdYm+79l1/hF+Ov5gnhP359DOZ9yVVZ4rr59eV+jSncTZ68AA==);strokeColor=#000000;spacingTop=-3;spacingBottom=-3;spacingLeft=-3;spacingRight=-3;points=[];labelBackgroundColor=none;rounded=0;html=1;whiteSpace=wrap;" vertex="1" parent="1">
            <mxGeometry x="3156" y="1785" width="142" height="22" as="geometry" />
          </mxCell>
        </UserObject>
        <UserObject label="" tags="背景" id="OCKaOWb37HJy0MvpUXwd-28">
          <mxCell style="vsdxID=28;fillColor=none;gradientColor=none;points=[];labelBackgroundColor=none;rounded=0;strokeColor=none;html=1;whiteSpace=wrap;" vertex="1" parent="1">
            <mxGeometry x="3107" y="1956" width="237" height="162" as="geometry" />
          </mxCell>
        </UserObject>
        <mxCell id="OCKaOWb37HJy0MvpUXwd-29" value="&lt;div style=&quot;font-size: 1px&quot;&gt;&lt;p style=&quot;text-align:center;margin-left:0;margin-right:0;margin-top:0px;margin-bottom:0px;text-indent:0;vertical-align:middle;direction:ltr;&quot;&gt;&lt;font style=&quot;font-size:12px;font-family:0;color:#000000;direction:ltr;letter-spacing:0px;line-height:120%;opacity:1&quot;&gt;&lt;b&gt;Conn&lt;/b&gt;&lt;/font&gt;&lt;/p&gt;&lt;/div&gt;" style="verticalAlign=middle;align=center;overflow=width;vsdxID=29;fillColor=#FFFFFF;gradientColor=none;shape=stencil(lVJBEoIwDHxNr502VZEz4j+YoUhHpFhA8fdSg9ACg+Mtm2y6mzRERHWeVJIAqxujr/Kp0iYn4kQAVJlLo5o+IiImIsq0kRej2zJFXCWWaaObftgXOuxjtgPYCxHQXfBJnJF7b5PUcrlP9mEHCDk9hAMBXMLwVqFKRzc8UsE9bbYhzNkP6bEO64P44hN9MBPQvfhHfkx8DbjjzDytO5h2tcreXvxCfjb9Yh5ffPvP+2A6lkwVBd6aW58fV5/CwxTxGw==);strokeColor=#000000;spacingTop=-3;spacingBottom=-3;spacingLeft=-3;spacingRight=-3;points=[];labelBackgroundColor=none;rounded=0;html=1;whiteSpace=wrap;" vertex="1" parent="OCKaOWb37HJy0MvpUXwd-28">
          <mxGeometry width="237" height="162" as="geometry" />
        </mxCell>
        <mxCell id="OCKaOWb37HJy0MvpUXwd-30" value="&lt;div style=&quot;font-size: 1px&quot;&gt;&lt;p style=&quot;text-align:left;margin-left:0;margin-right:0;margin-top:0px;margin-bottom:0px;text-indent:0;vertical-align:middle;direction:ltr;&quot;&gt;&lt;font style=&quot;font-size:12px;font-family:0;color:#000000;direction:ltr;letter-spacing:0px;line-height:120%;opacity:1&quot;&gt;+ ID() string&lt;br/&gt;&lt;/font&gt;&lt;font style=&quot;font-size:12px;font-family:0;color:#000000;direction:ltr;letter-spacing:0px;line-height:120%;opacity:1&quot;&gt;&lt;br/&gt;&lt;br/&gt;&lt;/font&gt;&lt;font style=&quot;font-size:12px;font-family:0;color:#000000;direction:ltr;letter-spacing:0px;line-height:120%;opacity:1&quot;&gt;+ NewStream() (Stream, error)&lt;br/&gt;&lt;/font&gt;&lt;font style=&quot;font-size:12px;font-family:0;color:#000000;direction:ltr;letter-spacing:0px;line-height:120%;opacity:1&quot;&gt;&lt;br/&gt;&lt;br/&gt;&lt;/font&gt;&lt;font style=&quot;font-size:12px;font-family:0;color:#000000;direction:ltr;letter-spacing:0px;line-height:120%;opacity:1&quot;&gt;+ GetStreams() []Stream&lt;br/&gt;&lt;/font&gt;&lt;font style=&quot;font-size:12px;font-family:0;color:#000000;direction:ltr;letter-spacing:0px;line-height:120%;opacity:1&quot;&gt;&lt;br/&gt;&lt;br/&gt;&lt;/font&gt;&lt;font style=&quot;font-size:12px;font-family:0;color:#000000;direction:ltr;letter-spacing:0px;line-height:120%;opacity:1&quot;&gt;+ Stat() Stat&lt;/font&gt;&lt;/p&gt;&lt;/div&gt;" style="verticalAlign=middle;align=left;overflow=width;vsdxID=30;fillColor=none;gradientColor=none;shape=stencil(UzV2Ls5ILEhVNTIoLinKz04tz0wpyVA1dlE1MsrMy0gtyiwBslSNXVWNndPyi1LTi/JL81Ig/IJEkEoQKze/DGRCBUSfAUiHkUElhGdooWdqBBZxgyjOycxDUmxoQEA5kIGwCOJGuBxxLjAg3nYSlML4WBWTrdQAp9eBHPQIAApBIs/YFQA=);strokeColor=#000000;spacingTop=-3;spacingBottom=-3;spacingLeft=-3;spacingRight=-3;points=[];labelBackgroundColor=none;rounded=0;html=1;whiteSpace=wrap;" vertex="1" parent="OCKaOWb37HJy0MvpUXwd-28">
          <mxGeometry width="237" height="162" as="geometry" />
        </mxCell>
        <UserObject label="&lt;div style=&quot;font-size: 1px&quot;&gt;&lt;p style=&quot;text-align:center;margin-left:0;margin-right:0;margin-top:0px;margin-bottom:0px;text-indent:0;vertical-align:middle;direction:ltr;&quot;&gt;&lt;font style=&quot;font-size:12px;font-family:0;color:#000000;direction:ltr;letter-spacing:0px;line-height:120%;opacity:1&quot;&gt;A&lt;/font&gt;&lt;/p&gt;&lt;/div&gt;" tags="Background" id="OCKaOWb37HJy0MvpUXwd-31">
          <mxCell style="verticalAlign=middle;align=center;overflow=width;vsdxID=31;fillColor=#ffb74d;gradientColor=none;shape=stencil(jZFRDsIgEERPs58aYGM9QK33aCwVIkJDqdbbC1mbKiGmfzvDWyaZBaxH1Q4SBBuDdzf51F1QgCcQQlslvQ5xAmwA6955efVush3poU1kmu7ukX6YaY+lDcFepA4kz0ReJk8o/2U/cserfXUkbxbkcbZAogBhDuGW2BVfjEJwFssLsX9DjbYbW4nDWmavjaFbfL/n5UeLDofNGw==);strokeColor=#000000;spacingTop=-3;spacingBottom=-3;spacingLeft=-3;spacingRight=-3;points=[];labelBackgroundColor=none;rounded=0;html=1;whiteSpace=wrap;" vertex="1" parent="1">
            <mxGeometry x="279" y="1767" width="69" height="70" as="geometry" />
          </mxCell>
        </UserObject>
        <UserObject label="&lt;div style=&quot;font-size: 1px&quot;&gt;&lt;p style=&quot;text-align:center;margin-left:0;margin-right:0;margin-top:0px;margin-bottom:0px;text-indent:0;vertical-align:middle;direction:ltr;&quot;&gt;&lt;font style=&quot;font-size:12px;font-family:0;color:#000000;direction:ltr;letter-spacing:0px;line-height:120%;opacity:1&quot;&gt;C&lt;/font&gt;&lt;/p&gt;&lt;/div&gt;" tags="Background" id="OCKaOWb37HJy0MvpUXwd-32">
          <mxCell style="verticalAlign=middle;align=center;overflow=width;vsdxID=32;fillColor=#00bcd4;gradientColor=none;shape=stencil(jZFRDsIgEERPs58aYGM9QK33aCwVIkJDqdbbC1mbKiGmfzvDWyaZBaxH1Q4SBBuDdzf51F1QgCcQQlslvQ5xAmwA6955efVush3poU1kmu7ukX6YaY+lDcFepA4kz0ReJk8o/2U/cserfXUkbxbkcbZAogBhDuGW2BVfjEJwFssLsX9DjbYbW4nDWmavjaFbfL/n5UeLDofNGw==);strokeColor=#000000;spacingTop=-3;spacingBottom=-3;spacingLeft=-3;spacingRight=-3;points=[];labelBackgroundColor=none;rounded=0;html=1;whiteSpace=wrap;" vertex="1" parent="1">
            <mxGeometry x="536" y="1767" width="69" height="70" as="geometry" />
          </mxCell>
        </UserObject>
        <UserObject label="&lt;div style=&quot;font-size: 1px&quot;&gt;&lt;p style=&quot;text-align:center;margin-left:0;margin-right:0;margin-top:0px;margin-bottom:0px;text-indent:0;vertical-align:middle;direction:ltr;&quot;&gt;&lt;font style=&quot;font-size:12px;font-family:0;color:#000000;direction:ltr;letter-spacing:0px;line-height:120%;opacity:1&quot;&gt;D&lt;/font&gt;&lt;/p&gt;&lt;/div&gt;" tags="Background" id="OCKaOWb37HJy0MvpUXwd-33">
          <mxCell style="verticalAlign=middle;align=center;overflow=width;vsdxID=33;fillColor=#00bcd4;gradientColor=none;shape=stencil(jZFRDsIgEERPs58aYGM9QK33aCwVIkJDqdbbC1mbKiGmfzvDWyaZBaxH1Q4SBBuDdzf51F1QgCcQQlslvQ5xAmwA6955efVush3poU1kmu7ukX6YaY+lDcFepA4kz0ReJk8o/2U/cserfXUkbxbkcbZAogBhDuGW2BVfjEJwFssLsX9DjbYbW4nDWmavjaFbfL/n5UeLDofNGw==);strokeColor=#000000;spacingTop=-3;spacingBottom=-3;spacingLeft=-3;spacingRight=-3;points=[];labelBackgroundColor=none;rounded=0;html=1;whiteSpace=wrap;" vertex="1" parent="1">
            <mxGeometry x="536" y="1937" width="69" height="70" as="geometry" />
          </mxCell>
        </UserObject>
        <UserObject label="&lt;div style=&quot;font-size: 1px&quot;&gt;&lt;p style=&quot;text-align:center;margin-left:0;margin-right:0;margin-top:0px;margin-bottom:0px;text-indent:0;vertical-align:middle;direction:ltr;&quot;&gt;&lt;font style=&quot;font-size:12px;font-family:0;color:#000000;direction:ltr;letter-spacing:0px;line-height:120%;opacity:1&quot;&gt;B&lt;/font&gt;&lt;/p&gt;&lt;/div&gt;" tags="Background" id="OCKaOWb37HJy0MvpUXwd-34">
          <mxCell style="verticalAlign=middle;align=center;overflow=width;vsdxID=34;fillColor=#00bcd4;gradientColor=none;shape=stencil(jZFRDsIgEERPs58aYGM9QK33aCwVIkJDqdbbC1mbKiGmfzvDWyaZBaxH1Q4SBBuDdzf51F1QgCcQQlslvQ5xAmwA6955efVush3poU1kmu7ukX6YaY+lDcFepA4kz0ReJk8o/2U/cserfXUkbxbkcbZAogBhDuGW2BVfjEJwFssLsX9DjbYbW4nDWmavjaFbfL/n5UeLDofNGw==);strokeColor=#000000;spacingTop=-3;spacingBottom=-3;spacingLeft=-3;spacingRight=-3;points=[];labelBackgroundColor=none;rounded=0;html=1;whiteSpace=wrap;" vertex="1" parent="1">
            <mxGeometry x="536" y="1610" width="69" height="70" as="geometry" />
          </mxCell>
        </UserObject>
        <UserObject label="&lt;div style=&quot;font-size: 1px&quot;&gt;&lt;p style=&quot;text-align:center;margin-left:0;margin-right:0;margin-top:0px;margin-bottom:0px;text-indent:0;vertical-align:middle;direction:ltr;&quot;&gt;&lt;font style=&quot;font-size:12px;font-family:0;color:#000000;direction:ltr;letter-spacing:0px;line-height:120%;opacity:1&quot;&gt;E&lt;/font&gt;&lt;/p&gt;&lt;/div&gt;" tags="Background" id="OCKaOWb37HJy0MvpUXwd-35">
          <mxCell style="verticalAlign=middle;align=center;overflow=width;vsdxID=35;fillColor=#00bcd4;gradientColor=none;shape=stencil(jZFRDsIgEERPs58aYGM9QK33aCwVIkJDqdbbC1mbKiGmfzvDWyaZBaxH1Q4SBBuDdzf51F1QgCcQQlslvQ5xAmwA6955efVush3poU1kmu7ukX6YaY+lDcFepA4kz0ReJk8o/2U/cserfXUkbxbkcbZAogBhDuGW2BVfjEJwFssLsX9DjbYbW4nDWmavjaFbfL/n5UeLDofNGw==);strokeColor=#000000;spacingTop=-3;spacingBottom=-3;spacingLeft=-3;spacingRight=-3;points=[];labelBackgroundColor=none;rounded=0;html=1;whiteSpace=wrap;" vertex="1" parent="1">
            <mxGeometry x="716" y="1767" width="69" height="70" as="geometry" />
          </mxCell>
        </UserObject>
        <UserObject label="&lt;div style=&quot;font-size: 1px&quot;&gt;&lt;p style=&quot;text-align:center;margin-left:0;margin-right:0;margin-top:0px;margin-bottom:0px;text-indent:0;vertical-align:middle;direction:ltr;&quot;&gt;&lt;font style=&quot;font-size:12px;font-family:0;color:#000000;direction:ltr;letter-spacing:0px;line-height:120%;opacity:1&quot;&gt;G&lt;/font&gt;&lt;/p&gt;&lt;/div&gt;" tags="Background" id="OCKaOWb37HJy0MvpUXwd-36">
          <mxCell style="verticalAlign=middle;align=center;overflow=width;vsdxID=36;fillColor=#ffb74d;gradientColor=none;shape=stencil(jZFRDsIgEERPs58aYGM9QK33aCwVIkJDqdbbC1mbKiGmfzvDWyaZBaxH1Q4SBBuDdzf51F1QgCcQQlslvQ5xAmwA6955efVush3poU1kmu7ukX6YaY+lDcFepA4kz0ReJk8o/2U/cserfXUkbxbkcbZAogBhDuGW2BVfjEJwFssLsX9DjbYbW4nDWmavjaFbfL/n5UeLDofNGw==);strokeColor=#000000;spacingTop=-3;spacingBottom=-3;spacingLeft=-3;spacingRight=-3;points=[];labelBackgroundColor=none;rounded=0;html=1;whiteSpace=wrap;" vertex="1" parent="1">
            <mxGeometry x="920" y="1676" width="69" height="70" as="geometry" />
          </mxCell>
        </UserObject>
        <UserObject label="&lt;div style=&quot;font-size: 1px&quot;&gt;&lt;p style=&quot;text-align:center;margin-left:0;margin-right:0;margin-top:0px;margin-bottom:0px;text-indent:0;vertical-align:middle;direction:ltr;&quot;&gt;&lt;font style=&quot;font-size:12px;font-family:0;color:#000000;direction:ltr;letter-spacing:0px;line-height:120%;opacity:1&quot;&gt;F&lt;/font&gt;&lt;/p&gt;&lt;/div&gt;" tags="Background" id="OCKaOWb37HJy0MvpUXwd-37">
          <mxCell style="verticalAlign=middle;align=center;overflow=width;vsdxID=37;fillColor=#00bcd4;gradientColor=none;shape=stencil(jZFRDsIgEERPs58aYGM9QK33aCwVIkJDqdbbC1mbKiGmfzvDWyaZBaxH1Q4SBBuDdzf51F1QgCcQQlslvQ5xAmwA6955efVush3poU1kmu7ukX6YaY+lDcFepA4kz0ReJk8o/2U/cserfXUkbxbkcbZAogBhDuGW2BVfjEJwFssLsX9DjbYbW4nDWmavjaFbfL/n5UeLDofNGw==);strokeColor=#000000;spacingTop=-3;spacingBottom=-3;spacingLeft=-3;spacingRight=-3;points=[];labelBackgroundColor=none;rounded=0;html=1;whiteSpace=wrap;" vertex="1" parent="1">
            <mxGeometry x="716" y="1937" width="69" height="70" as="geometry" />
          </mxCell>
        </UserObject>
        <UserObject label="&lt;div style=&quot;font-size: 1px&quot;&gt;&lt;p style=&quot;text-align:center;margin-left:0;margin-right:0;margin-top:0px;margin-bottom:0px;text-indent:0;vertical-align:middle;direction:ltr;&quot;&gt;&lt;font style=&quot;font-size:12px;font-family:0;color:#000000;direction:ltr;letter-spacing:0px;line-height:120%;opacity:1&quot;&gt;H&lt;/font&gt;&lt;/p&gt;&lt;/div&gt;" tags="Background" id="OCKaOWb37HJy0MvpUXwd-38">
          <mxCell style="verticalAlign=middle;align=center;overflow=width;vsdxID=38;fillColor=#00bcd4;gradientColor=none;shape=stencil(jZFRDsIgEERPs58aYGM9QK33aCwVIkJDqdbbC1mbKiGmfzvDWyaZBaxH1Q4SBBuDdzf51F1QgCcQQlslvQ5xAmwA6955efVush3poU1kmu7ukX6YaY+lDcFepA4kz0ReJk8o/2U/cserfXUkbxbkcbZAogBhDuGW2BVfjEJwFssLsX9DjbYbW4nDWmavjaFbfL/n5UeLDofNGw==);strokeColor=#000000;spacingTop=-3;spacingBottom=-3;spacingLeft=-3;spacingRight=-3;points=[];labelBackgroundColor=none;rounded=0;html=1;whiteSpace=wrap;" vertex="1" parent="1">
            <mxGeometry x="920" y="1848" width="69" height="70" as="geometry" />
          </mxCell>
        </UserObject>
        <UserObject label="" tags="Background" id="OCKaOWb37HJy0MvpUXwd-39">
          <mxCell style="vsdxID=39;fillColor=none;gradientColor=none;image;aspect=fixed;image=data:image/png,iVBORw0KGgoAAAANSUhEUgAAAK4AAACWCAYAAABHJbMuAAAAAXNSR0IArs4c6QAABcJJREFUeF7tnVtS20AQRVsL8JpidgPZQwqoLAKymihr4j9KSRiwzWMm+LpLlz7+ldTTfe5hkKFsDfHB6+EutjHE9e6U7UfncgwCIgJjTPEnIsbNVYzv1RzeOrAnLLKK0qDMJwhMcTtftbmKm+OrX4n7cBc3e7vsJ1bjEgiICUxxeyzvgbhIKwZOOR2BI3mfxUVaHWMqnYnAnryLuEh7JtCU1ROY4mJ+04a4erRUPC+BcXMZF8PuLwi/z7sW1SEgJDA9istfEYRMKZVAYBH3Pubdlr/XJvBmCRmBcRZ3kpWjEARyCCBuDmdWERNAXDFQyuUQQNwczqwiJoC4YqCUyyGAuDmcWUVMAHHFQCmXQwBxczizipgA4oqBUi6HAOLmcGYVMQHEFQOlXA4BxM3hzCpiAogrBkq5HAKIm8OZVcQEEFcMlHI5BBA3hzOriAkgrhgo5XIIIG4OZ1YRE0BcMVDK5RBA3BzOrCImgLhioJTLIYC4OZxZRUwAccVAKZdDAHFzOLOKmADiioFSLocA4uZwZhUxAcQVA6VcDgHEzeHMKmICiCsGSrkcAoibw5lVxAQQVwyUcjkEEDeHM6uICSCuGCjlcgggbg5nVhETQFwxUMrlEEDcHM6sIiaAuGKglMshYCnu/Fj45anavCQEtjHEN7MnL5mJ+8ZTtCXRUSTMHhvmJe7mMg6e9o5vOgJmTxhFXF303pUQ95z57Z6cfc4lqtY2ezSu1467SMV9rvxny2y3nec3FPcltlGeYM2Cjs9xtha3pmZMbb/jEmFdAuy4dbO3nhxxreOr2zzi1s3eenLEtY6vbvOIWzd768kR1zq+us0jbt3srSdHXOv46jaPuHWzt54cca3jq9s84tbN3npyxLWOr27ziFs3e+vJEdc6vrrNI27d7K0nR1zr+Oo2j7h1s7eeHHGt46vbPOLWzd56csS1jq9u84hbN3vryRHXOr66zSNu3eytJ0dc6/jqNo+4dbO3nhxxreOr2zzi1s3eenLEtY6vbvOIWzd768kR1zq+us0jbt3srSdHXOv46jaPuHWzt54cca3jq9s84tbN3npyxLWOr27ziFs3e+vJEdc6vrrNI27d7K0nR1zr+Oo2j7h1s7eeHHGt46vbPOLWzd56csS1jq9u84hbN3vryRHXOr66zSNu3eytJ0dc6/jqNo+4dbO3nhxxreOr2zzi1s3eenLEtY6vbvOIWzd768kR1zq+us0jbt3srSdfxP0dEVvrMWi+FoEpbhG3VuRfY9pF3LvYxrDsurwgYEFgcxnDMHf6cB+TRcc0CYGIcXMZF4/i3sVNDHENFQisnsAUt5uruFnE3e26vElbfWrFG9xJO1N4EZd73eJWrH785RbhqctncXe3DLxRW31+JRs8kPZgx93HwT1vSTnWOfTe7cF+gwc77it5H9XmTds6I/3qXY3xKO341qDvinsk8fyfNf679pEqQ3zrYDSH8eerG3fCfIuk78nateOesHjJS7tur975tVcS2IlDd+24J65R4nLEzY0ZcUW8EVcEsrMM4naCap2GuC1C2uOIK+KJuCKQnWUQtxNU6zTEbRHSHkdcEU/EFYHsLIO4naBapyFui5D2OOKKeCKuCGRnGcTtBNU6DXFbhLTHEVfEE3FFIDvLIG4nqNZpiNsipD2OuCKeiCsC2VkGcTtBtU5D3BYh7XHEFfFEXBHIzjKI2wmqdRritghpjyOuiCfiikB2lkHcTlCt0xC3RUh73FLc5Wuj1veaPyHd+nze8jmqtbXe81GZtfVsI+7uO85mMdYo7dpy/Vw/Rh8tshC369fw56LiqmMCJvJ6iMuX8uX+gE1xsfbbh9WLy9eg5jq7rIa4p0NH3NMZ/ncFg9sFdtz/TrXABey4mpB5ToWGY2eVV18w13ld6mmr33FnGvwpLM2JD7+vK62LjoUsxH2a4+FX/Ni9eZi/p4uXksDf+Ln57vO9Zv8AlH5V2SMtiSMAAAAASUVORK5CYII=;strokeColor=none;strokeWidth=0;points=[];labelBackgroundColor=none;rounded=0;html=1;whiteSpace=wrap;" vertex="1" parent="1">
            <mxGeometry x="294" y="2515" width="40" height="45" as="geometry" />
          </mxCell>
        </UserObject>
        <UserObject label="" tags="Background" id="OCKaOWb37HJy0MvpUXwd-40">
          <mxCell style="vsdxID=40;fillColor=none;gradientColor=none;image;aspect=fixed;image=data:image/png,iVBORw0KGgoAAAANSUhEUgAAAK4AAACWCAYAAABHJbMuAAAAAXNSR0IArs4c6QAABcJJREFUeF7tnVtS20AQRVsL8JpidgPZQwqoLAKymihr4j9KSRiwzWMm+LpLlz7+ldTTfe5hkKFsDfHB6+EutjHE9e6U7UfncgwCIgJjTPEnIsbNVYzv1RzeOrAnLLKK0qDMJwhMcTtftbmKm+OrX4n7cBc3e7vsJ1bjEgiICUxxeyzvgbhIKwZOOR2BI3mfxUVaHWMqnYnAnryLuEh7JtCU1ROY4mJ+04a4erRUPC+BcXMZF8PuLwi/z7sW1SEgJDA9istfEYRMKZVAYBH3Pubdlr/XJvBmCRmBcRZ3kpWjEARyCCBuDmdWERNAXDFQyuUQQNwczqwiJoC4YqCUyyGAuDmcWUVMAHHFQCmXQwBxczizipgA4oqBUi6HAOLmcGYVMQHEFQOlXA4BxM3hzCpiAogrBkq5HAKIm8OZVcQEEFcMlHI5BBA3hzOriAkgrhgo5XIIIG4OZ1YRE0BcMVDK5RBA3BzOrCImgLhioJTLIYC4OZxZRUwAccVAKZdDAHFzOLOKmADiioFSLocA4uZwZhUxAcQVA6VcDgHEzeHMKmICiCsGSrkcAoibw5lVxAQQVwyUcjkEEDeHM6uICSCuGCjlcgggbg5nVhETQFwxUMrlEEDcHM6sIiaAuGKglMshYCnu/Fj45anavCQEtjHEN7MnL5mJ+8ZTtCXRUSTMHhvmJe7mMg6e9o5vOgJmTxhFXF303pUQ95z57Z6cfc4lqtY2ezSu1467SMV9rvxny2y3nec3FPcltlGeYM2Cjs9xtha3pmZMbb/jEmFdAuy4dbO3nhxxreOr2zzi1s3eenLEtY6vbvOIWzd768kR1zq+us0jbt3srSdHXOv46jaPuHWzt54cca3jq9s84tbN3npyxLWOr27ziFs3e+vJEdc6vrrNI27d7K0nR1zr+Oo2j7h1s7eeHHGt46vbPOLWzd56csS1jq9u84hbN3vryRHXOr66zSNu3eytJ0dc6/jqNo+4dbO3nhxxreOr2zzi1s3eenLEtY6vbvOIWzd768kR1zq+us0jbt3srSdHXOv46jaPuHWzt54cca3jq9s84tbN3npyxLWOr27ziFs3e+vJEdc6vrrNI27d7K0nR1zr+Oo2j7h1s7eeHHGt46vbPOLWzd56csS1jq9u84hbN3vryRHXOr66zSNu3eytJ0dc6/jqNo+4dbO3nhxxreOr2zzi1s3eenLEtY6vbvOIWzd768kR1zq+us0jbt3srSdfxP0dEVvrMWi+FoEpbhG3VuRfY9pF3LvYxrDsurwgYEFgcxnDMHf6cB+TRcc0CYGIcXMZF4/i3sVNDHENFQisnsAUt5uruFnE3e26vElbfWrFG9xJO1N4EZd73eJWrH785RbhqctncXe3DLxRW31+JRs8kPZgx93HwT1vSTnWOfTe7cF+gwc77it5H9XmTds6I/3qXY3xKO341qDvinsk8fyfNf679pEqQ3zrYDSH8eerG3fCfIuk78nateOesHjJS7tur975tVcS2IlDd+24J65R4nLEzY0ZcUW8EVcEsrMM4naCap2GuC1C2uOIK+KJuCKQnWUQtxNU6zTEbRHSHkdcEU/EFYHsLIO4naBapyFui5D2OOKKeCKuCGRnGcTtBNU6DXFbhLTHEVfEE3FFIDvLIG4nqNZpiNsipD2OuCKeiCsC2VkGcTtBtU5D3BYh7XHEFfFEXBHIzjKI2wmqdRritghpjyOuiCfiikB2lkHcTlCt0xC3RUh73FLc5Wuj1veaPyHd+nze8jmqtbXe81GZtfVsI+7uO85mMdYo7dpy/Vw/Rh8tshC369fw56LiqmMCJvJ6iMuX8uX+gE1xsfbbh9WLy9eg5jq7rIa4p0NH3NMZ/ncFg9sFdtz/TrXABey4mpB5ToWGY2eVV18w13ld6mmr33FnGvwpLM2JD7+vK62LjoUsxH2a4+FX/Ni9eZi/p4uXksDf+Ln57vO9Zv8AlH5V2SMtiSMAAAAASUVORK5CYII=;strokeColor=none;strokeWidth=0;points=[];labelBackgroundColor=none;rounded=0;html=1;whiteSpace=wrap;" vertex="1" parent="1">
            <mxGeometry x="294" y="2596" width="40" height="45" as="geometry" />
          </mxCell>
        </UserObject>
        <UserObject label="" tags="Background" id="OCKaOWb37HJy0MvpUXwd-41">
          <mxCell style="vsdxID=41;fillColor=none;gradientColor=none;image;aspect=fixed;image=data:image/png,iVBORw0KGgoAAAANSUhEUgAAAJYAAACWCAYAAAA8AXHiAAAAAXNSR0IArs4c6QAABppJREFUeF7t3TFuG0cUxvFhlU6pHDfZwAeQAfcuYsGXsFLzAj6BpRPkAgRU+hRG5CJlgAB2lSKFGSBI0sRCGldMRhta5O5y+T3Ovt2h5r+NYfi94c43P84uGUU7Cxwk4JDAzGFMhiSBACwQuCQALJdYGRRYGHBJAFgusTIosDDgkgCwXGJlUGBhwCUBYLnEyqDAwoBLAsByiZVBgYUBlwSA5RIrgwILAy4JAMslVgYFFgZcEsgT1nz57PNsF9W1y8yPfdDMM8oL1nz5QwjhDtX24l+GRXVx7B6Szn++jPP/dkdGWeWTB6z63feqB9V6PbIKLwmJtblGFTPqPxZVFmuaxUkENbQ60rNQ2uXRls91WFRn+/x5/3susFaGiWYRnOF800ttsLJ4800Pqzu0zXfc+jJ5t0CZbPfpYsQR5svmG+/yv9uG9Yeadj4Z7Oo5wtreker7r3hTv3mUczlU5t/+0DP5vWj+sCKn9ju2bFjNHbsNa/LbhRxgNb9iaIcCrO0dG1jCPYTybgMWsARK2yXA6o+s6x6LHUtgBixgCUzsJcACll2N0AEsYAlM7CXAApZdjdABLGAJTOwlwAKWXY3QASxgCUzsJcACll2N0AEsYAlM7CXAApZdjdABLGAJTOwlwAKWXY3QASxgCUzsJcACll2N0AEsYAlM7CXAApZdjdABLGAJTOwlwAKWXY3QASxgCUzsJcACll2N0AEsYAlM7CXAApZdjdABLGAJTOwlwAKWXY3QASxgCUzsJcACll2N0AEsYAlM7CXAApZdjdABLGAJTOwlwAKWXY3QASxgCUzsJcACll2N0AEsYAlM7CXAApZdjdABLGAJTOwlwAKWXY3QASxgCUzsJcACll2N0AEsYAlM7CXAApZdjdABLGAJTOwlwAKWXY3QASxgCUzsJcACll2N0AEsYAlM7CXAApZdjdABLGAJTOwlwAKWrKZ+eKN6fB9CeLJR/HMI4WWjufGw8dnLEFaxroBj9iSEVcxo8zhr/F3JcHdWi+p66CCHeyZ0jelVCMGCauj5MN7hCURcb8Oiujh8iLvOYWDNl/FkIiqO40/gcghc6bBAdfyU2jNIxjUErNV9TJY5hbOQcO+VBqt7t4rX6ih+8BtCFtshgXoN49G8lckM1qJKw+qQHUMKCcyXzSvPdVhUzU+fwkB1SRqC9ndQyddm+cwpHDYB5ftEwysCyxDWvS5t39awY93rBR9rcsAaK+nCXgdYhS34WNMF1lhJF/Y6wCpswceaLrDGSrqw1wFWYQs+1nSBNVbShb0OsApb8LGmCyx70i+uVs9m/LxYb3A//fr3o19+/+fRRhHfvPcl9t3V6mIFqr3vxncfbsL75c1mHbB2pQaqvZ4+FwBLzyqcX63i/4TBz+ALmQFLCGldcn614qdbxbyAJQYVy4ClhwUsPStgGbICliEsdiw9LGDpWbFjGbICliEsdiw9LGDpWbFjGbICliEsdiw9LGDpWbFjGbICliEsdiw9LGDpWbFjGbICliEsdiw9LGDpWbFjGbICliGsHHasPz9+2jrjr778QprB2H3AkpalLpoKVkTxbnkTmjjWp35anYTH35x0zuTN+7929kWUj6uT0IXz0L71SQDrCGD1LfL69COO56cPtmbTsbit2Q7Ztzk4sDKHFXepCEs5IqzN3ef1j78pbbcgh+gDlhR3u2iKS2ETVrzsPfz/vuqPj5+2fq58E8gYfX2XYHYsA7IcYPXhGfvfgGXA01cKrO3LMrDuESwuhYcsZua/gzSHHasv1r5LodoX69SbfnasQ5B39EwBy7LQ50+/3jpr5WuK2+/nBurjU+GB0KaCpXzl0PzKIE7Rs69vt4qvzadCA7KpYK1Pcdc37/v+s87QffF89r0msI4IluFUJy8FlmEJpt6xDKc6eWnusJJ+Q8nQ6QJLTzR3WCFk9CwdYOmwOr6ySHp8TeojT+Jvcmk8VjfUT+oMt39Oejw/fdA8t0nPJ9cX3/EjPhPCikm1nxqVa36clyWBxCtP2o5Vw+ratSxToDa/BJJ2qziddFg1Lp4JnR+OQ88oGdVwsO52rvWT7A+dFH3TJTDok3GH2bG6wqgvkRzHkIDDY5b9YB1DoJyjWwLAcou27IGBVfb6u80eWG7Rlj0wsMpef7fZA8st2rIHBlbZ6+82e2C5RVv2wMAqe/3dZg8st2jLHhhYZa+/2+yB5RZt2QMDq+z1d5s9sNyiLXtgYJW9/m6zB5ZbtGUPDKyy199t9v8C1ZzB8SSj9lsAAAAASUVORK5CYII=;strokeColor=none;strokeWidth=0;points=[];labelBackgroundColor=none;rounded=0;html=1;whiteSpace=wrap;" vertex="1" parent="1">
            <mxGeometry x="423" y="2478" width="100" height="100" as="geometry" />
          </mxCell>
        </UserObject>
        <UserObject label="" tags="Background" id="OCKaOWb37HJy0MvpUXwd-42">
          <mxCell style="vsdxID=42;fillColor=none;gradientColor=none;image;aspect=fixed;image=data:image/png,iVBORw0KGgoAAAANSUhEUgAAAK4AAACWCAYAAABHJbMuAAAAAXNSR0IArs4c6QAABcJJREFUeF7tnVtS20AQRVsL8JpidgPZQwqoLAKymihr4j9KSRiwzWMm+LpLlz7+ldTTfe5hkKFsDfHB6+EutjHE9e6U7UfncgwCIgJjTPEnIsbNVYzv1RzeOrAnLLKK0qDMJwhMcTtftbmKm+OrX4n7cBc3e7vsJ1bjEgiICUxxeyzvgbhIKwZOOR2BI3mfxUVaHWMqnYnAnryLuEh7JtCU1ROY4mJ+04a4erRUPC+BcXMZF8PuLwi/z7sW1SEgJDA9istfEYRMKZVAYBH3Pubdlr/XJvBmCRmBcRZ3kpWjEARyCCBuDmdWERNAXDFQyuUQQNwczqwiJoC4YqCUyyGAuDmcWUVMAHHFQCmXQwBxczizipgA4oqBUi6HAOLmcGYVMQHEFQOlXA4BxM3hzCpiAogrBkq5HAKIm8OZVcQEEFcMlHI5BBA3hzOriAkgrhgo5XIIIG4OZ1YRE0BcMVDK5RBA3BzOrCImgLhioJTLIYC4OZxZRUwAccVAKZdDAHFzOLOKmADiioFSLocA4uZwZhUxAcQVA6VcDgHEzeHMKmICiCsGSrkcAoibw5lVxAQQVwyUcjkEEDeHM6uICSCuGCjlcgggbg5nVhETQFwxUMrlEEDcHM6sIiaAuGKglMshYCnu/Fj45anavCQEtjHEN7MnL5mJ+8ZTtCXRUSTMHhvmJe7mMg6e9o5vOgJmTxhFXF303pUQ95z57Z6cfc4lqtY2ezSu1467SMV9rvxny2y3nec3FPcltlGeYM2Cjs9xtha3pmZMbb/jEmFdAuy4dbO3nhxxreOr2zzi1s3eenLEtY6vbvOIWzd768kR1zq+us0jbt3srSdHXOv46jaPuHWzt54cca3jq9s84tbN3npyxLWOr27ziFs3e+vJEdc6vrrNI27d7K0nR1zr+Oo2j7h1s7eeHHGt46vbPOLWzd56csS1jq9u84hbN3vryRHXOr66zSNu3eytJ0dc6/jqNo+4dbO3nhxxreOr2zzi1s3eenLEtY6vbvOIWzd768kR1zq+us0jbt3srSdHXOv46jaPuHWzt54cca3jq9s84tbN3npyxLWOr27ziFs3e+vJEdc6vrrNI27d7K0nR1zr+Oo2j7h1s7eeHHGt46vbPOLWzd56csS1jq9u84hbN3vryRHXOr66zSNu3eytJ0dc6/jqNo+4dbO3nhxxreOr2zzi1s3eenLEtY6vbvOIWzd768kR1zq+us0jbt3srSdfxP0dEVvrMWi+FoEpbhG3VuRfY9pF3LvYxrDsurwgYEFgcxnDMHf6cB+TRcc0CYGIcXMZF4/i3sVNDHENFQisnsAUt5uruFnE3e26vElbfWrFG9xJO1N4EZd73eJWrH785RbhqctncXe3DLxRW31+JRs8kPZgx93HwT1vSTnWOfTe7cF+gwc77it5H9XmTds6I/3qXY3xKO341qDvinsk8fyfNf679pEqQ3zrYDSH8eerG3fCfIuk78nateOesHjJS7tur975tVcS2IlDd+24J65R4nLEzY0ZcUW8EVcEsrMM4naCap2GuC1C2uOIK+KJuCKQnWUQtxNU6zTEbRHSHkdcEU/EFYHsLIO4naBapyFui5D2OOKKeCKuCGRnGcTtBNU6DXFbhLTHEVfEE3FFIDvLIG4nqNZpiNsipD2OuCKeiCsC2VkGcTtBtU5D3BYh7XHEFfFEXBHIzjKI2wmqdRritghpjyOuiCfiikB2lkHcTlCt0xC3RUh73FLc5Wuj1veaPyHd+nze8jmqtbXe81GZtfVsI+7uO85mMdYo7dpy/Vw/Rh8tshC369fw56LiqmMCJvJ6iMuX8uX+gE1xsfbbh9WLy9eg5jq7rIa4p0NH3NMZ/ncFg9sFdtz/TrXABey4mpB5ToWGY2eVV18w13ld6mmr33FnGvwpLM2JD7+vK62LjoUsxH2a4+FX/Ni9eZi/p4uXksDf+Ln57vO9Zv8AlH5V2SMtiSMAAAAASUVORK5CYII=;strokeColor=none;strokeWidth=0;points=[];labelBackgroundColor=none;rounded=0;html=1;whiteSpace=wrap;" vertex="1" parent="1">
            <mxGeometry x="910" y="2369" width="40" height="45" as="geometry" />
          </mxCell>
        </UserObject>
        <UserObject label="" tags="Background" id="OCKaOWb37HJy0MvpUXwd-43">
          <mxCell style="vsdxID=43;fillColor=none;gradientColor=none;image;aspect=fixed;image=data:image/png,iVBORw0KGgoAAAANSUhEUgAAAK4AAACWCAYAAABHJbMuAAAAAXNSR0IArs4c6QAABcJJREFUeF7tnVtS20AQRVsL8JpidgPZQwqoLAKymihr4j9KSRiwzWMm+LpLlz7+ldTTfe5hkKFsDfHB6+EutjHE9e6U7UfncgwCIgJjTPEnIsbNVYzv1RzeOrAnLLKK0qDMJwhMcTtftbmKm+OrX4n7cBc3e7vsJ1bjEgiICUxxeyzvgbhIKwZOOR2BI3mfxUVaHWMqnYnAnryLuEh7JtCU1ROY4mJ+04a4erRUPC+BcXMZF8PuLwi/z7sW1SEgJDA9istfEYRMKZVAYBH3Pubdlr/XJvBmCRmBcRZ3kpWjEARyCCBuDmdWERNAXDFQyuUQQNwczqwiJoC4YqCUyyGAuDmcWUVMAHHFQCmXQwBxczizipgA4oqBUi6HAOLmcGYVMQHEFQOlXA4BxM3hzCpiAogrBkq5HAKIm8OZVcQEEFcMlHI5BBA3hzOriAkgrhgo5XIIIG4OZ1YRE0BcMVDK5RBA3BzOrCImgLhioJTLIYC4OZxZRUwAccVAKZdDAHFzOLOKmADiioFSLocA4uZwZhUxAcQVA6VcDgHEzeHMKmICiCsGSrkcAoibw5lVxAQQVwyUcjkEEDeHM6uICSCuGCjlcgggbg5nVhETQFwxUMrlEEDcHM6sIiaAuGKglMshYCnu/Fj45anavCQEtjHEN7MnL5mJ+8ZTtCXRUSTMHhvmJe7mMg6e9o5vOgJmTxhFXF303pUQ95z57Z6cfc4lqtY2ezSu1467SMV9rvxny2y3nec3FPcltlGeYM2Cjs9xtha3pmZMbb/jEmFdAuy4dbO3nhxxreOr2zzi1s3eenLEtY6vbvOIWzd768kR1zq+us0jbt3srSdHXOv46jaPuHWzt54cca3jq9s84tbN3npyxLWOr27ziFs3e+vJEdc6vrrNI27d7K0nR1zr+Oo2j7h1s7eeHHGt46vbPOLWzd56csS1jq9u84hbN3vryRHXOr66zSNu3eytJ0dc6/jqNo+4dbO3nhxxreOr2zzi1s3eenLEtY6vbvOIWzd768kR1zq+us0jbt3srSdHXOv46jaPuHWzt54cca3jq9s84tbN3npyxLWOr27ziFs3e+vJEdc6vrrNI27d7K0nR1zr+Oo2j7h1s7eeHHGt46vbPOLWzd56csS1jq9u84hbN3vryRHXOr66zSNu3eytJ0dc6/jqNo+4dbO3nhxxreOr2zzi1s3eenLEtY6vbvOIWzd768kR1zq+us0jbt3srSdfxP0dEVvrMWi+FoEpbhG3VuRfY9pF3LvYxrDsurwgYEFgcxnDMHf6cB+TRcc0CYGIcXMZF4/i3sVNDHENFQisnsAUt5uruFnE3e26vElbfWrFG9xJO1N4EZd73eJWrH785RbhqctncXe3DLxRW31+JRs8kPZgx93HwT1vSTnWOfTe7cF+gwc77it5H9XmTds6I/3qXY3xKO341qDvinsk8fyfNf679pEqQ3zrYDSH8eerG3fCfIuk78nateOesHjJS7tur975tVcS2IlDd+24J65R4nLEzY0ZcUW8EVcEsrMM4naCap2GuC1C2uOIK+KJuCKQnWUQtxNU6zTEbRHSHkdcEU/EFYHsLIO4naBapyFui5D2OOKKeCKuCGRnGcTtBNU6DXFbhLTHEVfEE3FFIDvLIG4nqNZpiNsipD2OuCKeiCsC2VkGcTtBtU5D3BYh7XHEFfFEXBHIzjKI2wmqdRritghpjyOuiCfiikB2lkHcTlCt0xC3RUh73FLc5Wuj1veaPyHd+nze8jmqtbXe81GZtfVsI+7uO85mMdYo7dpy/Vw/Rh8tshC369fw56LiqmMCJvJ6iMuX8uX+gE1xsfbbh9WLy9eg5jq7rIa4p0NH3NMZ/ncFg9sFdtz/TrXABey4mpB5ToWGY2eVV18w13ld6mmr33FnGvwpLM2JD7+vK62LjoUsxH2a4+FX/Ni9eZi/p4uXksDf+Ln57vO9Zv8AlH5V2SMtiSMAAAAASUVORK5CYII=;strokeColor=none;strokeWidth=0;points=[];labelBackgroundColor=none;rounded=0;html=1;whiteSpace=wrap;" vertex="1" parent="1">
            <mxGeometry x="910" y="2505" width="40" height="45" as="geometry" />
          </mxCell>
        </UserObject>
        <UserObject label="&lt;div style=&quot;font-size: 1px&quot;&gt;&lt;p style=&quot;text-align:center;margin-left:0;margin-right:0;margin-top:0px;margin-bottom:0px;text-indent:0;vertical-align:middle;direction:ltr;&quot;&gt;&lt;font style=&quot;font-size:12px;font-family:0;color:#000000;direction:ltr;letter-spacing:0px;line-height:120%;opacity:1&quot;&gt;公网&lt;/font&gt;&lt;/p&gt;&lt;/div&gt;" tags="Background" id="OCKaOWb37HJy0MvpUXwd-44">
          <mxCell style="verticalAlign=middle;align=center;overflow=width;vsdxID=44;fillColor=#FFFFFF;gradientColor=none;shape=stencil(jZPNjsIwDISfJkek2CZEOfPzHmgp22hLi0Jh4e1pcfYnc4i4ZTJOP9n1GFlf2v25MWwvYxq+mu94GFsjG8Mc+7ZJcZxORrZG1schNZ9puPYH1ef9XDmfTsNt/sJd3xHPT9g+VHr7kjst/bgmrSV1F2Rzdb5wWd9Z9TLbWYrLtqgO2c5SqjAPqJIkXKJsSVpyiaIqykFbC4B5V4X92j8wV4MFV8IIZkhWYIqAC4BzVRxZLnkemgvQHFlsD2YZqrNceWxPYEc88sRU/12dJ4w8nCdsSoClJMCVEehi/25apsNfyo6x6zSk/31M5XSliZbtEw==);strokeColor=#000000;spacingTop=-3;spacingBottom=-3;spacingLeft=-3;spacingRight=-3;points=[];labelBackgroundColor=none;rounded=0;html=1;whiteSpace=wrap;" vertex="1" parent="1">
            <mxGeometry x="606" y="2383" width="191" height="149" as="geometry" />
          </mxCell>
        </UserObject>
        <UserObject label="&lt;div style=&quot;font-size: 1px&quot;&gt;&lt;p style=&quot;text-align:center;margin-left:0;margin-right:0;margin-top:0px;margin-bottom:0px;text-indent:0;vertical-align:middle;direction:ltr;&quot;&gt;&lt;font style=&quot;font-size:12px;font-family:0;color:#000000;direction:ltr;letter-spacing:0px;line-height:120%;opacity:1&quot;&gt;内网：192.168.1.13&lt;/font&gt;&lt;/p&gt;&lt;/div&gt;" tags="Background" id="OCKaOWb37HJy0MvpUXwd-45">
          <mxCell style="verticalAlign=middle;align=center;overflow=width;vsdxID=45;fillColor=#FFFFFF;gradientColor=none;shape=stencil(nZBRDoQgDERP03+WHsHFe5iISyOCQdT19kIaIxq//Jtp3zTpAFaTaUYNUkwx+F6v1EYD+AUpyRkdKCYFqACrzgf9C352LfuxyWRWg1/yhT/nRE5IsZWuZtCSK8CPeI0e/hF+jV7AJM4PO7KWCyr390bSiNtEtQM=);strokeColor=#000000;spacingTop=-3;spacingBottom=-3;spacingLeft=-3;spacingRight=-3;points=[];labelBackgroundColor=none;rounded=0;html=1;whiteSpace=wrap;" vertex="1" parent="1">
            <mxGeometry x="130" y="2601" width="142" height="36" as="geometry" />
          </mxCell>
        </UserObject>
        <UserObject label="&lt;div style=&quot;font-size: 1px&quot;&gt;&lt;p style=&quot;text-align:center;margin-left:0;margin-right:0;margin-top:0px;margin-bottom:0px;text-indent:0;vertical-align:middle;direction:ltr;&quot;&gt;&lt;font style=&quot;font-size:12px;font-family:0;color:#000000;direction:ltr;letter-spacing:0px;line-height:120%;opacity:1&quot;&gt;内网：192.168.1.12&lt;/font&gt;&lt;/p&gt;&lt;/div&gt;" tags="Background" id="OCKaOWb37HJy0MvpUXwd-46">
          <mxCell style="verticalAlign=middle;align=center;overflow=width;vsdxID=46;fillColor=#FFFFFF;gradientColor=none;shape=stencil(nZBRDoQgDERP03+WHsHFe5iISyOCQdT19kIaIxq//Jtp3zTpAFaTaUYNUkwx+F6v1EYD+AUpyRkdKCYFqACrzgf9C352LfuxyWRWg1/yhT/nRE5IsZWuZtCSK8CPeI0e/hF+jV7AJM4PO7KWCyr390bSiNtEtQM=);strokeColor=#000000;spacingTop=-3;spacingBottom=-3;spacingLeft=-3;spacingRight=-3;points=[];labelBackgroundColor=none;rounded=0;html=1;whiteSpace=wrap;" vertex="1" parent="1">
            <mxGeometry x="130" y="2510" width="142" height="36" as="geometry" />
          </mxCell>
        </UserObject>
        <UserObject label="&lt;div style=&quot;font-size: 1px&quot;&gt;&lt;p style=&quot;text-align:left;margin-left:0;margin-right:0;margin-top:0px;margin-bottom:0px;text-indent:0;vertical-align:middle;direction:ltr;&quot;&gt;&lt;font style=&quot;font-size:12px;font-family:0;color:#000000;direction:ltr;letter-spacing:0px;line-height:120%;opacity:1&quot;&gt;内网：192.168.1.10&lt;br/&gt;&lt;/font&gt;&lt;font style=&quot;font-size:12px;font-family:0;color:#000000;direction:ltr;letter-spacing:0px;line-height:120%;opacity:1&quot;&gt;公网：43.225.158.197&lt;br/&gt;&lt;/font&gt;&lt;/p&gt;&lt;/div&gt;" tags="Background" id="OCKaOWb37HJy0MvpUXwd-47">
          <mxCell style="verticalAlign=middle;align=left;overflow=width;vsdxID=47;fillColor=#FFFFFF;gradientColor=none;shape=stencil(nZBRDoQgDERP03+WHsHFe5iISyOCQdT19kIaIxq//Jtp3zTpAFaTaUYNUkwx+F6v1EYD+AUpyRkdKCYFqACrzgf9C352LfuxyWRWg1/yhT/nRE5IsZWuZtCSK8CPeI0e/hF+jV7AJM4PO7KWCyr390bSiNtEtQM=);strokeColor=#000000;spacingTop=-3;spacingBottom=-3;spacingLeft=-3;spacingRight=-3;points=[];labelBackgroundColor=none;rounded=0;html=1;whiteSpace=wrap;" vertex="1" parent="1">
            <mxGeometry x="382" y="2439" width="157" height="55" as="geometry" />
          </mxCell>
        </UserObject>
        <UserObject label="&lt;div style=&quot;font-size: 1px&quot;&gt;&lt;p style=&quot;text-align:center;margin-left:0;margin-right:0;margin-top:0px;margin-bottom:0px;text-indent:0;vertical-align:middle;direction:ltr;&quot;&gt;&lt;font style=&quot;font-size:12px;font-family:0;color:#000000;direction:ltr;letter-spacing:0px;line-height:120%;opacity:1&quot;&gt;公网：43.225.158.4&lt;/font&gt;&lt;/p&gt;&lt;/div&gt;" tags="Background" id="OCKaOWb37HJy0MvpUXwd-48">
          <mxCell style="verticalAlign=middle;align=center;overflow=width;vsdxID=48;fillColor=#FFFFFF;gradientColor=none;shape=stencil(nZBRDoQgDERP03+WHsHFe5iISyOCQdT19kIaIxq//Jtp3zTpAFaTaUYNUkwx+F6v1EYD+AUpyRkdKCYFqACrzgf9C352LfuxyWRWg1/yhT/nRE5IsZWuZtCSK8CPeI0e/hF+jV7AJM4PO7KWCyr390bSiNtEtQM=);strokeColor=#000000;spacingTop=-3;spacingBottom=-3;spacingLeft=-3;spacingRight=-3;points=[];labelBackgroundColor=none;rounded=0;html=1;whiteSpace=wrap;" vertex="1" parent="1">
            <mxGeometry x="1002" y="2374" width="142" height="36" as="geometry" />
          </mxCell>
        </UserObject>
        <UserObject label="&lt;div style=&quot;font-size: 1px&quot;&gt;&lt;p style=&quot;text-align:center;margin-left:0;margin-right:0;margin-top:0px;margin-bottom:0px;text-indent:0;vertical-align:middle;direction:ltr;&quot;&gt;&lt;font style=&quot;font-size:12px;font-family:0;color:#000000;direction:ltr;letter-spacing:0px;line-height:120%;opacity:1&quot;&gt;内网：43.225.158.5&lt;/font&gt;&lt;/p&gt;&lt;/div&gt;" tags="Background" id="OCKaOWb37HJy0MvpUXwd-49">
          <mxCell style="verticalAlign=middle;align=center;overflow=width;vsdxID=49;fillColor=#FFFFFF;gradientColor=none;shape=stencil(nZBRDoQgDERP03+WHsHFe5iISyOCQdT19kIaIxq//Jtp3zTpAFaTaUYNUkwx+F6v1EYD+AUpyRkdKCYFqACrzgf9C352LfuxyWRWg1/yhT/nRE5IsZWuZtCSK8CPeI0e/hF+jV7AJM4PO7KWCyr390bSiNtEtQM=);strokeColor=#000000;spacingTop=-3;spacingBottom=-3;spacingLeft=-3;spacingRight=-3;points=[];labelBackgroundColor=none;rounded=0;html=1;whiteSpace=wrap;" vertex="1" parent="1">
            <mxGeometry x="1002" y="2494" width="142" height="36" as="geometry" />
          </mxCell>
        </UserObject>
        <UserObject label="&lt;div style=&quot;font-size: 1px&quot;&gt;&lt;p style=&quot;text-align:center;margin-left:0;margin-right:0;margin-top:0px;margin-bottom:0px;text-indent:0;vertical-align:middle;direction:ltr;&quot;&gt;&lt;font style=&quot;font-size:12px;font-family:0;color:#000000;direction:ltr;letter-spacing:0px;line-height:120%;opacity:1&quot;&gt;A&lt;/font&gt;&lt;/p&gt;&lt;/div&gt;" tags="Background" id="OCKaOWb37HJy0MvpUXwd-50">
          <mxCell style="verticalAlign=middle;align=center;overflow=width;vsdxID=50;fillColor=none;gradientColor=none;shape=stencil(nZBLDoAgDAVP0z3SIyjeg0SURgWD+Lu9EGL8xBW7N828Ji1gOWs5KeBs9s72aqPGa8AKOCejlSMfEqAALFvrVOfsYprEk4xmTKNd44Y99VhscHY8qU7iQOYhFixbvfhXzlZfYgj3hQG+54dReh2KEw==);strokeColor=none;strokeWidth=0;spacingTop=-3;spacingBottom=-3;spacingLeft=-3;spacingRight=-3;points=[];labelBackgroundColor=none;rounded=0;html=1;whiteSpace=wrap;" vertex="1" parent="1">
            <mxGeometry x="279" y="2475" width="69" height="36" as="geometry" />
          </mxCell>
        </UserObject>
        <UserObject label="&lt;div style=&quot;font-size: 1px&quot;&gt;&lt;p style=&quot;text-align:center;margin-left:0;margin-right:0;margin-top:0px;margin-bottom:0px;text-indent:0;vertical-align:middle;direction:ltr;&quot;&gt;&lt;font style=&quot;font-size:12px;font-family:0;color:#000000;direction:ltr;letter-spacing:0px;line-height:120%;opacity:1&quot;&gt;B&lt;/font&gt;&lt;/p&gt;&lt;/div&gt;" tags="Background" id="OCKaOWb37HJy0MvpUXwd-51">
          <mxCell style="verticalAlign=middle;align=center;overflow=width;vsdxID=51;fillColor=none;gradientColor=none;shape=stencil(nZBLDoAgDAVP0z3SIyjeg0SURgWD+Lu9EGL8xBW7N828Ji1gOWs5KeBs9s72aqPGa8AKOCejlSMfEqAALFvrVOfsYprEk4xmTKNd44Y99VhscHY8qU7iQOYhFixbvfhXzlZfYgj3hQG+54dReh2KEw==);strokeColor=none;strokeWidth=0;spacingTop=-3;spacingBottom=-3;spacingLeft=-3;spacingRight=-3;points=[];labelBackgroundColor=none;rounded=0;html=1;whiteSpace=wrap;" vertex="1" parent="1">
            <mxGeometry x="279" y="2556" width="69" height="36" as="geometry" />
          </mxCell>
        </UserObject>
        <UserObject label="&lt;div style=&quot;font-size: 1px&quot;&gt;&lt;p style=&quot;text-align:center;margin-left:0;margin-right:0;margin-top:0px;margin-bottom:0px;text-indent:0;vertical-align:middle;direction:ltr;&quot;&gt;&lt;font style=&quot;font-size:12px;font-family:0;color:#000000;direction:ltr;letter-spacing:0px;line-height:120%;opacity:1&quot;&gt;C&lt;/font&gt;&lt;/p&gt;&lt;/div&gt;" tags="Background" id="OCKaOWb37HJy0MvpUXwd-52">
          <mxCell style="verticalAlign=middle;align=center;overflow=width;vsdxID=52;fillColor=none;gradientColor=none;shape=stencil(nZBLDoAgDAVP0z3SIyjeg0SURgWD+Lu9EGL8xBW7N828Ji1gOWs5KeBs9s72aqPGa8AKOCejlSMfEqAALFvrVOfsYprEk4xmTKNd44Y99VhscHY8qU7iQOYhFixbvfhXzlZfYgj3hQG+54dReh2KEw==);strokeColor=none;strokeWidth=0;spacingTop=-3;spacingBottom=-3;spacingLeft=-3;spacingRight=-3;points=[];labelBackgroundColor=none;rounded=0;html=1;whiteSpace=wrap;" vertex="1" parent="1">
            <mxGeometry x="895" y="2319" width="69" height="36" as="geometry" />
          </mxCell>
        </UserObject>
        <UserObject label="&lt;div style=&quot;font-size: 1px&quot;&gt;&lt;p style=&quot;text-align:center;margin-left:0;margin-right:0;margin-top:0px;margin-bottom:0px;text-indent:0;vertical-align:middle;direction:ltr;&quot;&gt;&lt;font style=&quot;font-size:12px;font-family:0;color:#000000;direction:ltr;letter-spacing:0px;line-height:120%;opacity:1&quot;&gt;D&lt;/font&gt;&lt;/p&gt;&lt;/div&gt;" tags="Background" id="OCKaOWb37HJy0MvpUXwd-53">
          <mxCell style="verticalAlign=middle;align=center;overflow=width;vsdxID=53;fillColor=none;gradientColor=none;shape=stencil(nZBLDoAgDAVP0z3SIyjeg0SURgWD+Lu9EGL8xBW7N828Ji1gOWs5KeBs9s72aqPGa8AKOCejlSMfEqAALFvrVOfsYprEk4xmTKNd44Y99VhscHY8qU7iQOYhFixbvfhXzlZfYgj3hQG+54dReh2KEw==);strokeColor=none;strokeWidth=0;spacingTop=-3;spacingBottom=-3;spacingLeft=-3;spacingRight=-3;points=[];labelBackgroundColor=none;rounded=0;html=1;whiteSpace=wrap;" vertex="1" parent="1">
            <mxGeometry x="895" y="2449" width="69" height="36" as="geometry" />
          </mxCell>
        </UserObject>
        <UserObject label="&lt;div style=&quot;font-size: 1px&quot;&gt;&lt;p style=&quot;text-align:center;margin-left:0;margin-right:0;margin-top:0px;margin-bottom:0px;text-indent:0;vertical-align:middle;direction:ltr;&quot;&gt;&lt;font style=&quot;font-size:12px;font-family:0;color:#000000;direction:ltr;letter-spacing:0px;line-height:120%;opacity:1&quot;&gt;A&lt;/font&gt;&lt;/p&gt;&lt;/div&gt;" tags="Background" id="OCKaOWb37HJy0MvpUXwd-54">
          <mxCell style="verticalAlign=middle;align=center;overflow=width;vsdxID=54;fillColor=#4dd0e1;gradientColor=none;shape=stencil(jZFRDsIgEERPs58aYGM9QK33aCwVIkJDqdbbC1mbKiGmfzvDWyaZBaxH1Q4SBBuDdzf51F1QgCcQQlslvQ5xAmwA6955efVush3poU1kmu7ukX6YaY+lDcFepA4kz0ReJk8o/2U/cserfXUkbxbkcbZAogBhDuGW2BVfjEJwFssLsX9DjbYbW4nDWmavjaFbfL/n5UeLDofNGw==);strokeColor=#000000;spacingTop=-3;spacingBottom=-3;spacingLeft=-3;spacingRight=-3;points=[];labelBackgroundColor=none;rounded=0;html=1;whiteSpace=wrap;" vertex="1" parent="1">
            <mxGeometry x="390" y="3925" width="69" height="70" as="geometry" />
          </mxCell>
        </UserObject>
        <UserObject label="&lt;div style=&quot;font-size: 1px&quot;&gt;&lt;p style=&quot;text-align:center;margin-left:0;margin-right:0;margin-top:0px;margin-bottom:0px;text-indent:0;vertical-align:middle;direction:ltr;&quot;&gt;&lt;font style=&quot;font-size:12px;font-family:0;color:#000000;direction:ltr;letter-spacing:0px;line-height:120%;opacity:1&quot;&gt;B&lt;/font&gt;&lt;/p&gt;&lt;/div&gt;" tags="Background" id="OCKaOWb37HJy0MvpUXwd-55">
          <mxCell style="verticalAlign=middle;align=center;overflow=width;vsdxID=55;fillColor=#4dd0e1;gradientColor=none;shape=stencil(jZFRDsIgEERPs58aYGM9QK33aCwVIkJDqdbbC1mbKiGmfzvDWyaZBaxH1Q4SBBuDdzf51F1QgCcQQlslvQ5xAmwA6955efVush3poU1kmu7ukX6YaY+lDcFepA4kz0ReJk8o/2U/cserfXUkbxbkcbZAogBhDuGW2BVfjEJwFssLsX9DjbYbW4nDWmavjaFbfL/n5UeLDofNGw==);strokeColor=#000000;spacingTop=-3;spacingBottom=-3;spacingLeft=-3;spacingRight=-3;points=[];labelBackgroundColor=none;rounded=0;html=1;whiteSpace=wrap;" vertex="1" parent="1">
            <mxGeometry x="645" y="3925" width="69" height="70" as="geometry" />
          </mxCell>
        </UserObject>
        <UserObject label="&lt;div style=&quot;font-size: 1px&quot;&gt;&lt;p style=&quot;text-align:center;margin-left:0;margin-right:0;margin-top:0px;margin-bottom:0px;text-indent:0;vertical-align:middle;direction:ltr;&quot;&gt;&lt;font style=&quot;font-size:12px;font-family:0;color:#000000;direction:ltr;letter-spacing:0px;line-height:120%;opacity:1&quot;&gt;C&lt;/font&gt;&lt;/p&gt;&lt;/div&gt;" tags="Background" id="OCKaOWb37HJy0MvpUXwd-56">
          <mxCell style="verticalAlign=middle;align=center;overflow=width;vsdxID=56;fillColor=#4dd0e1;gradientColor=none;shape=stencil(jZFRDsIgEERPs58aYGM9QK33aCwVIkJDqdbbC1mbKiGmfzvDWyaZBaxH1Q4SBBuDdzf51F1QgCcQQlslvQ5xAmwA6955efVush3poU1kmu7ukX6YaY+lDcFepA4kz0ReJk8o/2U/cserfXUkbxbkcbZAogBhDuGW2BVfjEJwFssLsX9DjbYbW4nDWmavjaFbfL/n5UeLDofNGw==);strokeColor=#000000;spacingTop=-3;spacingBottom=-3;spacingLeft=-3;spacingRight=-3;points=[];labelBackgroundColor=none;rounded=0;html=1;whiteSpace=wrap;" vertex="1" parent="1">
            <mxGeometry x="895" y="3925" width="69" height="70" as="geometry" />
          </mxCell>
        </UserObject>
        <UserObject label="&lt;div style=&quot;font-size: 1px&quot;&gt;&lt;p style=&quot;text-align:center;margin-left:0;margin-right:0;margin-top:0px;margin-bottom:0px;text-indent:0;vertical-align:middle;direction:ltr;&quot;&gt;&lt;font style=&quot;font-size:12px;font-family:0;color:#000000;direction:ltr;letter-spacing:0px;line-height:120%;opacity:1&quot;&gt;D&lt;/font&gt;&lt;/p&gt;&lt;/div&gt;" tags="Background" id="OCKaOWb37HJy0MvpUXwd-57">
          <mxCell style="verticalAlign=middle;align=center;overflow=width;vsdxID=57;fillColor=#4dd0e1;gradientColor=none;shape=stencil(jZFRDsIgEERPs58aYGM9QK33aCwVIkJDqdbbC1mbKiGmfzvDWyaZBaxH1Q4SBBuDdzf51F1QgCcQQlslvQ5xAmwA6955efVush3poU1kmu7ukX6YaY+lDcFepA4kz0ReJk8o/2U/cserfXUkbxbkcbZAogBhDuGW2BVfjEJwFssLsX9DjbYbW4nDWmavjaFbfL/n5UeLDofNGw==);strokeColor=#000000;spacingTop=-3;spacingBottom=-3;spacingLeft=-3;spacingRight=-3;points=[];labelBackgroundColor=none;rounded=0;html=1;whiteSpace=wrap;" vertex="1" parent="1">
            <mxGeometry x="1153" y="3925" width="69" height="70" as="geometry" />
          </mxCell>
        </UserObject>
        <UserObject label="&lt;div style=&quot;font-size: 1px&quot;&gt;&lt;p style=&quot;text-align:center;margin-left:0;margin-right:0;margin-top:0px;margin-bottom:0px;text-indent:0;vertical-align:middle;direction:ltr;&quot;&gt;&lt;font style=&quot;font-size:12px;font-family:0;color:#000000;direction:ltr;letter-spacing:0px;line-height:120%;opacity:1&quot;&gt;T&lt;/font&gt;&lt;/p&gt;&lt;/div&gt;" tags="Background" id="OCKaOWb37HJy0MvpUXwd-58">
          <mxCell style="verticalAlign=middle;align=center;overflow=width;vsdxID=58;fillColor=#4dd0e1;gradientColor=none;shape=stencil(jZFRDsIgEERPs58aYGM9QK33aCwVIkJDqdbbC1mbKiGmfzvDWyaZBaxH1Q4SBBuDdzf51F1QgCcQQlslvQ5xAmwA6955efVush3poU1kmu7ukX6YaY+lDcFepA4kz0ReJk8o/2U/cserfXUkbxbkcbZAogBhDuGW2BVfjEJwFssLsX9DjbYbW4nDWmavjaFbfL/n5UeLDofNGw==);strokeColor=#000000;spacingTop=-3;spacingBottom=-3;spacingLeft=-3;spacingRight=-3;points=[];labelBackgroundColor=none;rounded=0;html=1;whiteSpace=wrap;" vertex="1" parent="1">
            <mxGeometry x="1477" y="3925" width="69" height="70" as="geometry" />
          </mxCell>
        </UserObject>
        <UserObject label="&lt;div style=&quot;font-size: 1px&quot;&gt;&lt;p style=&quot;text-align:center;margin-left:0;margin-right:0;margin-top:0px;margin-bottom:0px;text-indent:0;vertical-align:middle;direction:ltr;&quot;&gt;&lt;font style=&quot;font-size:25px;font-family:0;color:#000000;direction:ltr;letter-spacing:0px;line-height:120%;opacity:1&quot;&gt;1&lt;/font&gt;&lt;/p&gt;&lt;/div&gt;" tags="Background" id="OCKaOWb37HJy0MvpUXwd-59">
          <mxCell style="verticalAlign=middle;align=center;overflow=width;vsdxID=59;fillColor=#FFFFFF;gradientColor=none;shape=stencil(lZLNDoMgDMefhqtp4SJn597DRJxkThzqdG8/WXUKJprd+vFvfy2UiaQts0YxDm1nzV0NOu9KJi6Mc12XyupusphImUgKY9XNmr7OyW8yp3TWw7xch5HqwFVweJOHGCF+I1cSP/ssd2L01b478rl6SfNteu5U6XqDlT4XDpgIZ9QAu1vCR6968uM4iuU//F9gmUCGA8DB5hi8OBztfkYOwLtVfPTJX0/GeiWFrio6sm0+vKopRBcp0g8=);strokeColor=#000000;spacingTop=-3;spacingBottom=-3;spacingLeft=-3;spacingRight=-3;points=[];labelBackgroundColor=none;rounded=0;html=1;whiteSpace=wrap;" vertex="1" parent="1">
            <mxGeometry x="539" y="3976" width="40" height="36" as="geometry" />
          </mxCell>
        </UserObject>
        <UserObject label="&lt;div style=&quot;font-size: 1px&quot;&gt;&lt;p style=&quot;text-align:center;margin-left:0;margin-right:0;margin-top:0px;margin-bottom:0px;text-indent:0;vertical-align:middle;direction:ltr;&quot;&gt;&lt;font style=&quot;font-size:25px;font-family:0;color:#000000;direction:ltr;letter-spacing:0px;line-height:120%;opacity:1&quot;&gt;2&lt;/font&gt;&lt;/p&gt;&lt;/div&gt;" tags="Background" id="OCKaOWb37HJy0MvpUXwd-60">
          <mxCell style="verticalAlign=middle;align=center;overflow=width;vsdxID=60;fillColor=#FFFFFF;gradientColor=none;shape=stencil(lZLNDoMgDMefhqtp4SJn597DRJxkThzqdG8/WXUKJprd+vFvfy2UiaQts0YxDm1nzV0NOu9KJi6Mc12XyupusphImUgKY9XNmr7OyW8yp3TWw7xch5HqwFVweJOHGCF+I1cSP/ssd2L01b478rl6SfNteu5U6XqDlT4XDpgIZ9QAu1vCR6968uM4iuU//F9gmUCGA8DB5hi8OBztfkYOwLtVfPTJX0/GeiWFrio6sm0+vKopRBcp0g8=);strokeColor=#000000;spacingTop=-3;spacingBottom=-3;spacingLeft=-3;spacingRight=-3;points=[];labelBackgroundColor=none;rounded=0;html=1;whiteSpace=wrap;" vertex="1" parent="1">
            <mxGeometry x="539" y="3907" width="40" height="36" as="geometry" />
          </mxCell>
        </UserObject>
        <UserObject label="&lt;div style=&quot;font-size: 1px&quot;&gt;&lt;p style=&quot;text-align:center;margin-left:0;margin-right:0;margin-top:0px;margin-bottom:0px;text-indent:0;vertical-align:middle;direction:ltr;&quot;&gt;&lt;font style=&quot;font-size:25px;font-family:0;color:#000000;direction:ltr;letter-spacing:0px;line-height:120%;opacity:1&quot;&gt;3&lt;/font&gt;&lt;/p&gt;&lt;/div&gt;" tags="Background" id="OCKaOWb37HJy0MvpUXwd-61">
          <mxCell style="verticalAlign=middle;align=center;overflow=width;vsdxID=61;fillColor=#FFFFFF;gradientColor=none;shape=stencil(lZLNDoMgDMefhqtp4SJn597DRJxkThzqdG8/WXUKJprd+vFvfy2UiaQts0YxDm1nzV0NOu9KJi6Mc12XyupusphImUgKY9XNmr7OyW8yp3TWw7xch5HqwFVweJOHGCF+I1cSP/ssd2L01b478rl6SfNteu5U6XqDlT4XDpgIZ9QAu1vCR6968uM4iuU//F9gmUCGA8DB5hi8OBztfkYOwLtVfPTJX0/GeiWFrio6sm0+vKopRBcp0g8=);strokeColor=#000000;spacingTop=-3;spacingBottom=-3;spacingLeft=-3;spacingRight=-3;points=[];labelBackgroundColor=none;rounded=0;html=1;whiteSpace=wrap;" vertex="1" parent="1">
            <mxGeometry x="675" y="4083" width="40" height="36" as="geometry" />
          </mxCell>
        </UserObject>
        <UserObject label="&lt;div style=&quot;font-size: 1px&quot;&gt;&lt;p style=&quot;text-align:center;margin-left:0;margin-right:0;margin-top:0px;margin-bottom:0px;text-indent:0;vertical-align:middle;direction:ltr;&quot;&gt;&lt;font style=&quot;font-size:25px;font-family:0;color:#000000;direction:ltr;letter-spacing:0px;line-height:120%;opacity:1&quot;&gt;4&lt;/font&gt;&lt;/p&gt;&lt;/div&gt;" tags="Background" id="OCKaOWb37HJy0MvpUXwd-62">
          <mxCell style="verticalAlign=middle;align=center;overflow=width;vsdxID=62;fillColor=#FFFFFF;gradientColor=none;shape=stencil(lZLNDoMgDMefhqtp4SJn597DRJxkThzqdG8/WXUKJprd+vFvfy2UiaQts0YxDm1nzV0NOu9KJi6Mc12XyupusphImUgKY9XNmr7OyW8yp3TWw7xch5HqwFVweJOHGCF+I1cSP/ssd2L01b478rl6SfNteu5U6XqDlT4XDpgIZ9QAu1vCR6968uM4iuU//F9gmUCGA8DB5hi8OBztfkYOwLtVfPTJX0/GeiWFrio6sm0+vKopRBcp0g8=);strokeColor=#000000;spacingTop=-3;spacingBottom=-3;spacingLeft=-3;spacingRight=-3;points=[];labelBackgroundColor=none;rounded=0;html=1;whiteSpace=wrap;" vertex="1" parent="1">
            <mxGeometry x="675" y="3792" width="40" height="36" as="geometry" />
          </mxCell>
        </UserObject>
        <UserObject label="&lt;div style=&quot;font-size: 1px&quot;&gt;&lt;p style=&quot;text-align:center;margin-left:0;margin-right:0;margin-top:0px;margin-bottom:0px;text-indent:0;vertical-align:middle;direction:ltr;&quot;&gt;&lt;font style=&quot;font-size:25px;font-family:0;color:#000000;direction:ltr;letter-spacing:0px;line-height:120%;opacity:1&quot;&gt;5&lt;/font&gt;&lt;/p&gt;&lt;/div&gt;" tags="Background" id="OCKaOWb37HJy0MvpUXwd-63">
          <mxCell style="verticalAlign=middle;align=center;overflow=width;vsdxID=63;fillColor=#FFFFFF;gradientColor=none;shape=stencil(lZLNDoMgDMefhqtp4SJn597DRJxkThzqdG8/WXUKJprd+vFvfy2UiaQts0YxDm1nzV0NOu9KJi6Mc12XyupusphImUgKY9XNmr7OyW8yp3TWw7xch5HqwFVweJOHGCF+I1cSP/ssd2L01b478rl6SfNteu5U6XqDlT4XDpgIZ9QAu1vCR6968uM4iuU//F9gmUCGA8DB5hi8OBztfkYOwLtVfPTJX0/GeiWFrio6sm0+vKopRBcp0g8=);strokeColor=#000000;spacingTop=-3;spacingBottom=-3;spacingLeft=-3;spacingRight=-3;points=[];labelBackgroundColor=none;rounded=0;html=1;whiteSpace=wrap;" vertex="1" parent="1">
            <mxGeometry x="990" y="4128" width="40" height="36" as="geometry" />
          </mxCell>
        </UserObject>
        <UserObject label="&lt;div style=&quot;font-size: 1px&quot;&gt;&lt;p style=&quot;text-align:center;margin-left:0;margin-right:0;margin-top:0px;margin-bottom:0px;text-indent:0;vertical-align:middle;direction:ltr;&quot;&gt;&lt;font style=&quot;font-size:25px;font-family:0;color:#000000;direction:ltr;letter-spacing:0px;line-height:120%;opacity:1&quot;&gt;6&lt;/font&gt;&lt;/p&gt;&lt;/div&gt;" tags="Background" id="OCKaOWb37HJy0MvpUXwd-64">
          <mxCell style="verticalAlign=middle;align=center;overflow=width;vsdxID=64;fillColor=#FFFFFF;gradientColor=none;shape=stencil(lZLNDoMgDMefhqtp4SJn597DRJxkThzqdG8/WXUKJprd+vFvfy2UiaQts0YxDm1nzV0NOu9KJi6Mc12XyupusphImUgKY9XNmr7OyW8yp3TWw7xch5HqwFVweJOHGCF+I1cSP/ssd2L01b478rl6SfNteu5U6XqDlT4XDpgIZ9QAu1vCR6968uM4iuU//F9gmUCGA8DB5hi8OBztfkYOwLtVfPTJX0/GeiWFrio6sm0+vKopRBcp0g8=);strokeColor=#000000;spacingTop=-3;spacingBottom=-3;spacingLeft=-3;spacingRight=-3;points=[];labelBackgroundColor=none;rounded=0;html=1;whiteSpace=wrap;" vertex="1" parent="1">
            <mxGeometry x="990" y="3731" width="40" height="36" as="geometry" />
          </mxCell>
        </UserObject>
        <UserObject label="&lt;div style=&quot;font-size: 1px&quot;&gt;&lt;p style=&quot;text-align:center;margin-left:0;margin-right:0;margin-top:0px;margin-bottom:0px;text-indent:0;vertical-align:middle;direction:ltr;&quot;&gt;&lt;font style=&quot;font-size:12px;font-family:0;color:#000000;direction:ltr;letter-spacing:0px;line-height:120%;opacity:1&quot;&gt;SCTP&lt;/font&gt;&lt;/p&gt;&lt;/div&gt;" tags="Background" id="OCKaOWb37HJy0MvpUXwd-65">
          <mxCell style="verticalAlign=middle;align=center;overflow=width;vsdxID=65;fillColor=#2196f3;gradientColor=none;shape=stencil(nZBRDoQgDERP03+WHsHFe5iISyOCQdT19kIaIxq//Jtp3zTpAFaTaUYNUkwx+F6v1EYD+AUpyRkdKCYFqACrzgf9C352LfuxyWRWg1/yhT/nRE5IsZWuZtCSK8CPeI0e/hF+jV7AJM4PO7KWCyr390bSiNtEtQM=);strokeColor=#000000;spacingTop=-3;spacingBottom=-3;spacingLeft=-3;spacingRight=-3;points=[];labelBackgroundColor=none;rounded=0;html=1;whiteSpace=wrap;" vertex="1" parent="1">
            <mxGeometry x="359" y="4643" width="203" height="81" as="geometry" />
          </mxCell>
        </UserObject>
        <UserObject label="&lt;div style=&quot;font-size: 1px&quot;&gt;&lt;p style=&quot;text-align:center;margin-left:0;margin-right:0;margin-top:0px;margin-bottom:0px;text-indent:0;vertical-align:middle;direction:ltr;&quot;&gt;&lt;font style=&quot;font-size:12px;font-family:0;color:#000000;direction:ltr;letter-spacing:0px;line-height:120%;opacity:1&quot;&gt;SCTP&lt;/font&gt;&lt;/p&gt;&lt;/div&gt;" tags="Background" id="OCKaOWb37HJy0MvpUXwd-66">
          <mxCell style="verticalAlign=middle;align=center;overflow=width;vsdxID=66;fillColor=#2196f3;gradientColor=none;shape=stencil(nZBRDoQgDERP03+WHsHFe5iISyOCQdT19kIaIxq//Jtp3zTpAFaTaUYNUkwx+F6v1EYD+AUpyRkdKCYFqACrzgf9C352LfuxyWRWg1/yhT/nRE5IsZWuZtCSK8CPeI0e/hF+jV7AJM4PO7KWCyr390bSiNtEtQM=);strokeColor=#000000;spacingTop=-3;spacingBottom=-3;spacingLeft=-3;spacingRight=-3;points=[];labelBackgroundColor=none;rounded=0;html=1;whiteSpace=wrap;" vertex="1" parent="1">
            <mxGeometry x="806" y="4643" width="203" height="81" as="geometry" />
          </mxCell>
        </UserObject>
        <UserObject label="&lt;div style=&quot;font-size: 1px&quot;&gt;&lt;p style=&quot;text-align:center;margin-left:0;margin-right:0;margin-top:0px;margin-bottom:0px;text-indent:0;vertical-align:middle;direction:ltr;&quot;&gt;&lt;font style=&quot;font-size:12px;font-family:0;color:#000000;direction:ltr;letter-spacing:0px;line-height:120%;opacity:1&quot;&gt;DTLS&lt;/font&gt;&lt;/p&gt;&lt;/div&gt;" tags="Background" id="OCKaOWb37HJy0MvpUXwd-67">
          <mxCell style="verticalAlign=middle;align=center;overflow=width;vsdxID=67;fillColor=#2196f3;gradientColor=none;shape=stencil(nZBRDoQgDERP03+WHsHFe5iISyOCQdT19kIaIxq//Jtp3zTpAFaTaUYNUkwx+F6v1EYD+AUpyRkdKCYFqACrzgf9C352LfuxyWRWg1/yhT/nRE5IsZWuZtCSK8CPeI0e/hF+jV7AJM4PO7KWCyr390bSiNtEtQM=);strokeColor=#000000;spacingTop=-3;spacingBottom=-3;spacingLeft=-3;spacingRight=-3;points=[];labelBackgroundColor=none;rounded=0;html=1;whiteSpace=wrap;" vertex="1" parent="1">
            <mxGeometry x="359" y="4724" width="203" height="81" as="geometry" />
          </mxCell>
        </UserObject>
        <UserObject label="&lt;div style=&quot;font-size: 1px&quot;&gt;&lt;p style=&quot;text-align:center;margin-left:0;margin-right:0;margin-top:0px;margin-bottom:0px;text-indent:0;vertical-align:middle;direction:ltr;&quot;&gt;&lt;font style=&quot;font-size:12px;font-family:0;color:#000000;direction:ltr;letter-spacing:0px;line-height:120%;opacity:1&quot;&gt;DTLS&lt;/font&gt;&lt;/p&gt;&lt;/div&gt;" tags="Background" id="OCKaOWb37HJy0MvpUXwd-68">
          <mxCell style="verticalAlign=middle;align=center;overflow=width;vsdxID=68;fillColor=#2196f3;gradientColor=none;shape=stencil(nZBRDoQgDERP03+WHsHFe5iISyOCQdT19kIaIxq//Jtp3zTpAFaTaUYNUkwx+F6v1EYD+AUpyRkdKCYFqACrzgf9C352LfuxyWRWg1/yhT/nRE5IsZWuZtCSK8CPeI0e/hF+jV7AJM4PO7KWCyr390bSiNtEtQM=);strokeColor=#000000;spacingTop=-3;spacingBottom=-3;spacingLeft=-3;spacingRight=-3;points=[];labelBackgroundColor=none;rounded=0;html=1;whiteSpace=wrap;" vertex="1" parent="1">
            <mxGeometry x="806" y="4724" width="203" height="81" as="geometry" />
          </mxCell>
        </UserObject>
        <UserObject label="&lt;div style=&quot;font-size: 1px&quot;&gt;&lt;p style=&quot;text-align:center;margin-left:0;margin-right:0;margin-top:0px;margin-bottom:0px;text-indent:0;vertical-align:middle;direction:ltr;&quot;&gt;&lt;font style=&quot;font-size:12px;font-family:0;color:#000000;direction:ltr;letter-spacing:0px;line-height:120%;opacity:1&quot;&gt;UDP&lt;/font&gt;&lt;/p&gt;&lt;/div&gt;" tags="Background" id="OCKaOWb37HJy0MvpUXwd-69">
          <mxCell style="verticalAlign=middle;align=center;overflow=width;vsdxID=69;fillColor=#2196f3;gradientColor=none;shape=stencil(nZBRDoQgDERP03+WHsHFe5iISyOCQdT19kIaIxq//Jtp3zTpAFaTaUYNUkwx+F6v1EYD+AUpyRkdKCYFqACrzgf9C352LfuxyWRWg1/yhT/nRE5IsZWuZtCSK8CPeI0e/hF+jV7AJM4PO7KWCyr390bSiNtEtQM=);strokeColor=#000000;spacingTop=-3;spacingBottom=-3;spacingLeft=-3;spacingRight=-3;points=[];labelBackgroundColor=none;rounded=0;html=1;whiteSpace=wrap;" vertex="1" parent="1">
            <mxGeometry x="359" y="4805" width="203" height="81" as="geometry" />
          </mxCell>
        </UserObject>
        <UserObject label="&lt;div style=&quot;font-size: 1px&quot;&gt;&lt;p style=&quot;text-align:center;margin-left:0;margin-right:0;margin-top:0px;margin-bottom:0px;text-indent:0;vertical-align:middle;direction:ltr;&quot;&gt;&lt;font style=&quot;font-size:12px;font-family:0;color:#000000;direction:ltr;letter-spacing:0px;line-height:120%;opacity:1&quot;&gt;UDP&lt;/font&gt;&lt;/p&gt;&lt;/div&gt;" tags="Background" id="OCKaOWb37HJy0MvpUXwd-70">
          <mxCell style="verticalAlign=middle;align=center;overflow=width;vsdxID=70;fillColor=#2196f3;gradientColor=none;shape=stencil(nZBRDoQgDERP03+WHsHFe5iISyOCQdT19kIaIxq//Jtp3zTpAFaTaUYNUkwx+F6v1EYD+AUpyRkdKCYFqACrzgf9C352LfuxyWRWg1/yhT/nRE5IsZWuZtCSK8CPeI0e/hF+jV7AJM4PO7KWCyr390bSiNtEtQM=);strokeColor=#000000;spacingTop=-3;spacingBottom=-3;spacingLeft=-3;spacingRight=-3;points=[];labelBackgroundColor=none;rounded=0;html=1;whiteSpace=wrap;" vertex="1" parent="1">
            <mxGeometry x="806" y="4805" width="203" height="81" as="geometry" />
          </mxCell>
        </UserObject>
        <UserObject label="&lt;div style=&quot;font-size: 1px&quot;&gt;&lt;p style=&quot;text-align:center;margin-left:0;margin-right:0;margin-top:0px;margin-bottom:0px;text-indent:0;vertical-align:middle;direction:ltr;&quot;&gt;&lt;font style=&quot;font-size:12px;font-family:0;color:#000000;direction:ltr;letter-spacing:0px;line-height:120%;opacity:1&quot;&gt;...&lt;/font&gt;&lt;/p&gt;&lt;/div&gt;" tags="Background" id="OCKaOWb37HJy0MvpUXwd-71">
          <mxCell style="verticalAlign=middle;align=center;overflow=width;vsdxID=71;fillColor=#2196f3;gradientColor=none;shape=stencil(nZBRDoQgDERP03+WHsHFe5iISyOCQdT19kIaIxq//Jtp3zTpAFaTaUYNUkwx+F6v1EYD+AUpyRkdKCYFqACrzgf9C352LfuxyWRWg1/yhT/nRE5IsZWuZtCSK8CPeI0e/hF+jV7AJM4PO7KWCyr390bSiNtEtQM=);strokeColor=#000000;spacingTop=-3;spacingBottom=-3;spacingLeft=-3;spacingRight=-3;points=[];labelBackgroundColor=none;rounded=0;html=1;whiteSpace=wrap;" vertex="1" parent="1">
            <mxGeometry x="359" y="4886" width="203" height="81" as="geometry" />
          </mxCell>
        </UserObject>
        <UserObject label="&lt;div style=&quot;font-size: 1px&quot;&gt;&lt;p style=&quot;text-align:center;margin-left:0;margin-right:0;margin-top:0px;margin-bottom:0px;text-indent:0;vertical-align:middle;direction:ltr;&quot;&gt;&lt;font style=&quot;font-size:12px;font-family:0;color:#000000;direction:ltr;letter-spacing:0px;line-height:120%;opacity:1&quot;&gt;....&lt;/font&gt;&lt;/p&gt;&lt;/div&gt;" tags="Background" id="OCKaOWb37HJy0MvpUXwd-72">
          <mxCell style="verticalAlign=middle;align=center;overflow=width;vsdxID=72;fillColor=#2196f3;gradientColor=none;shape=stencil(nZBRDoQgDERP03+WHsHFe5iISyOCQdT19kIaIxq//Jtp3zTpAFaTaUYNUkwx+F6v1EYD+AUpyRkdKCYFqACrzgf9C352LfuxyWRWg1/yhT/nRE5IsZWuZtCSK8CPeI0e/hF+jV7AJM4PO7KWCyr390bSiNtEtQM=);strokeColor=#000000;spacingTop=-3;spacingBottom=-3;spacingLeft=-3;spacingRight=-3;points=[];labelBackgroundColor=none;rounded=0;html=1;whiteSpace=wrap;" vertex="1" parent="1">
            <mxGeometry x="806" y="4886" width="203" height="81" as="geometry" />
          </mxCell>
        </UserObject>
        <UserObject label="" tags="Background" id="OCKaOWb37HJy0MvpUXwd-73">
          <mxCell style="vsdxID=73;edgeStyle=none;startArrow=none;endArrow=block;startSize=5;endSize=5;strokeWidth=2;spacingTop=0;spacingBottom=0;spacingLeft=0;spacingRight=0;verticalAlign=middle;html=1;labelBackgroundColor=#ffffff;rounded=0;exitX=1.0084388185654007;exitY=0.5;exitDx=0;exitDy=0;exitPerimeter=0;entryX=0;entryY=0.5;entryDx=0;entryDy=0;entryPerimeter=0;" edge="1" parent="1" source="OCKaOWb37HJy0MvpUXwd-1" target="OCKaOWb37HJy0MvpUXwd-7">
            <mxGeometry relative="1" as="geometry">
              <mxPoint x="-87" y="89" as="offset" />
              <Array as="points">
                <mxPoint x="1467.5" y="657" />
                <mxPoint x="1467.5" y="632" />
              </Array>
            </mxGeometry>
          </mxCell>
        </UserObject>
        <UserObject label="" tags="Background" id="OCKaOWb37HJy0MvpUXwd-74">
          <mxCell style="vsdxID=74;edgeStyle=none;startArrow=none;endFill=0;endArrow=block;startSize=5;endSize=5;strokeWidth=2;spacingTop=0;spacingBottom=0;spacingLeft=0;spacingRight=0;verticalAlign=middle;html=1;labelBackgroundColor=#ffffff;rounded=0;exitX=1;exitY=0.6363636363636364;exitDx=0;exitDy=0;exitPerimeter=0;entryX=0;entryY=0.5302013422818792;entryDx=0;entryDy=0;entryPerimeter=0;" edge="1" parent="1" source="OCKaOWb37HJy0MvpUXwd-23" target="OCKaOWb37HJy0MvpUXwd-24">
            <mxGeometry relative="1" as="geometry">
              <mxPoint x="-90" y="102" as="offset" />
              <Array as="points">
                <mxPoint x="2827.45" y="1776" />
                <mxPoint x="2827.45" y="1776" />
              </Array>
            </mxGeometry>
          </mxCell>
        </UserObject>
        <UserObject label="" tags="Background" id="OCKaOWb37HJy0MvpUXwd-75">
          <mxCell style="vsdxID=75;edgeStyle=none;startArrow=block;endArrow=block;startSize=5;endSize=5;strokeWidth=2;spacingTop=0;spacingBottom=0;spacingLeft=0;spacingRight=0;verticalAlign=middle;html=1;labelBackgroundColor=#ffffff;rounded=0;exitX=1;exitY=0.5;exitDx=0;exitDy=0;exitPerimeter=0;entryX=0;entryY=0.5;entryDx=0;entryDy=0;entryPerimeter=0;" edge="1" parent="1" source="OCKaOWb37HJy0MvpUXwd-54" target="OCKaOWb37HJy0MvpUXwd-55">
            <mxGeometry relative="1" as="geometry">
              <mxPoint x="-93" y="102" as="offset" />
              <Array as="points">
                <mxPoint x="552" y="3960" />
                <mxPoint x="552" y="3960" />
              </Array>
            </mxGeometry>
          </mxCell>
        </UserObject>
        <UserObject label="" tags="Background" id="OCKaOWb37HJy0MvpUXwd-76">
          <mxCell style="vsdxID=76;edgeStyle=none;startArrow=none;endArrow=block;startSize=5;endSize=5;strokeWidth=2;spacingTop=0;spacingBottom=0;spacingLeft=0;spacingRight=0;verticalAlign=middle;html=1;labelBackgroundColor=#ffffff;rounded=0;exitX=0.9528795811518325;exitY=0.22818791946308725;exitDx=0;exitDy=0;exitPerimeter=0;entryX=0;entryY=0.5111111111111111;entryDx=0;entryDy=0;entryPerimeter=0;" edge="1" parent="1" source="OCKaOWb37HJy0MvpUXwd-44" target="OCKaOWb37HJy0MvpUXwd-42">
            <mxGeometry relative="1" as="geometry">
              <mxPoint x="-61" y="89" as="offset" />
              <Array as="points">
                <mxPoint x="848.86" y="2417" />
                <mxPoint x="848.86" y="2391.5" />
              </Array>
            </mxGeometry>
          </mxCell>
        </UserObject>
        <UserObject label="" tags="Background" id="OCKaOWb37HJy0MvpUXwd-77">
          <mxCell style="vsdxID=77;edgeStyle=none;startArrow=none;endFill=0;endArrow=block;startSize=5;endSize=5;strokeWidth=2;spacingTop=0;spacingBottom=0;spacingLeft=0;spacingRight=0;verticalAlign=middle;html=1;labelBackgroundColor=#ffffff;rounded=0;exitX=0.4859154929577465;exitY=1;exitDx=0;exitDy=0;exitPerimeter=0;entryX=0.4978902953586498;entryY=0;entryDx=0;entryDy=0;entryPerimeter=0;" edge="1" parent="1" source="OCKaOWb37HJy0MvpUXwd-27" target="OCKaOWb37HJy0MvpUXwd-28">
            <mxGeometry relative="1" as="geometry">
              <mxPoint y="175" as="offset" />
              <Array as="points">
                <mxPoint x="3225" y="1881.5" />
                <mxPoint x="3225" y="1881.5" />
              </Array>
            </mxGeometry>
          </mxCell>
        </UserObject>
        <UserObject label="" tags="Background" id="OCKaOWb37HJy0MvpUXwd-78">
          <mxCell style="vsdxID=78;edgeStyle=none;startArrow=none;endArrow=block;startSize=5;endSize=5;strokeWidth=2;spacingTop=0;spacingBottom=0;spacingLeft=0;spacingRight=0;verticalAlign=middle;html=1;labelBackgroundColor=#ffffff;rounded=0;exitX=1;exitY=0.5111111111111111;exitDx=0;exitDy=0;exitPerimeter=0;entryX=0.5;entryY=1;entryDx=0;entryDy=0;entryPerimeter=0;" edge="1" parent="1" source="OCKaOWb37HJy0MvpUXwd-40" target="OCKaOWb37HJy0MvpUXwd-41">
            <mxGeometry relative="1" as="geometry">
              <mxPoint x="-90" y="60" as="offset" />
              <Array as="points">
                <mxPoint x="473" y="2619" />
              </Array>
            </mxGeometry>
          </mxCell>
        </UserObject>
        <UserObject label="" tags="Background" id="OCKaOWb37HJy0MvpUXwd-79">
          <mxCell style="vsdxID=79;edgeStyle=none;startArrow=none;endFill=0;endArrow=block;startSize=5;endSize=5;strokeWidth=2;spacingTop=0;spacingBottom=0;spacingLeft=0;spacingRight=0;verticalAlign=middle;html=1;labelBackgroundColor=#ffffff;rounded=0;exitX=1;exitY=0.6818181818181818;exitDx=0;exitDy=0;exitPerimeter=0;entryX=0;entryY=0.07209302325581396;entryDx=0;entryDy=0;entryPerimeter=0;" edge="1" parent="1" source="OCKaOWb37HJy0MvpUXwd-15" target="OCKaOWb37HJy0MvpUXwd-16">
            <mxGeometry relative="1" as="geometry">
              <mxPoint x="-188" y="102" as="offset" />
              <Array as="points">
                <mxPoint x="2436.75" y="911" />
                <mxPoint x="2436.75" y="911" />
              </Array>
            </mxGeometry>
          </mxCell>
        </UserObject>
        <UserObject label="" tags="Background" id="OCKaOWb37HJy0MvpUXwd-80">
          <mxCell style="vsdxID=80;edgeStyle=none;startArrow=none;endArrow=none;startSize=5;endSize=5;strokeWidth=2;spacingTop=0;spacingBottom=0;spacingLeft=0;spacingRight=0;verticalAlign=middle;html=1;labelBackgroundColor=#ffffff;rounded=0;exitX=1;exitY=0.5;exitDx=0;exitDy=0;exitPerimeter=0;entryX=0;entryY=0.5;entryDx=0;entryDy=0;entryPerimeter=0;" edge="1" parent="1" source="OCKaOWb37HJy0MvpUXwd-32" target="OCKaOWb37HJy0MvpUXwd-35">
            <mxGeometry relative="1" as="geometry">
              <mxPoint x="-56" y="102" as="offset" />
              <Array as="points" />
            </mxGeometry>
          </mxCell>
        </UserObject>
        <UserObject label="" tags="Background" id="OCKaOWb37HJy0MvpUXwd-81">
          <mxCell style="vsdxID=81;edgeStyle=none;startArrow=none;endArrow=block;startSize=5;endSize=5;strokeWidth=2;spacingTop=0;spacingBottom=0;spacingLeft=0;spacingRight=0;verticalAlign=middle;html=1;labelBackgroundColor=#ffffff;rounded=0;exitX=0.9581151832460733;exitY=0.8053691275167785;exitDx=0;exitDy=0;exitPerimeter=0;entryX=0;entryY=0.5111111111111111;entryDx=0;entryDy=0;entryPerimeter=0;" edge="1" parent="1" source="OCKaOWb37HJy0MvpUXwd-44" target="OCKaOWb37HJy0MvpUXwd-43">
            <mxGeometry relative="1" as="geometry">
              <mxPoint x="-61" y="113" as="offset" />
              <Array as="points">
                <mxPoint x="849.13" y="2503" />
                <mxPoint x="849.13" y="2528" />
              </Array>
            </mxGeometry>
          </mxCell>
        </UserObject>
        <UserObject label="" tags="Background" id="OCKaOWb37HJy0MvpUXwd-82">
          <mxCell style="vsdxID=82;edgeStyle=none;dashed=1;startArrow=none;endFill=0;endArrow=block;startSize=5;endSize=5;strokeWidth=2;spacingTop=0;spacingBottom=0;spacingLeft=0;spacingRight=0;verticalAlign=middle;html=1;labelBackgroundColor=#ffffff;rounded=0;exitX=0.5017182130584192;exitY=0;exitDx=0;exitDy=0;exitPerimeter=0;entryX=0.5;entryY=1;entryDx=0;entryDy=0;entryPerimeter=0;" edge="1" parent="1" source="OCKaOWb37HJy0MvpUXwd-4" target="OCKaOWb37HJy0MvpUXwd-7">
            <mxGeometry relative="1" as="geometry">
              <mxPoint y="25" as="offset" />
              <Array as="points">
                <mxPoint x="1669" y="739.5" />
                <mxPoint x="1669" y="739.5" />
              </Array>
            </mxGeometry>
          </mxCell>
        </UserObject>
        <UserObject label="" tags="Background" id="OCKaOWb37HJy0MvpUXwd-83">
          <mxCell style="vsdxID=83;edgeStyle=none;startArrow=none;endFill=0;endArrow=block;startSize=5;endSize=5;strokeWidth=2;spacingTop=0;spacingBottom=0;spacingLeft=0;spacingRight=0;verticalAlign=middle;html=1;labelBackgroundColor=#ffffff;rounded=0;exitX=1;exitY=0.5;exitDx=0;exitDy=0;exitPerimeter=0;entryX=0.5;entryY=0;entryDx=0;entryDy=0;entryPerimeter=0;" edge="1" parent="1" source="OCKaOWb37HJy0MvpUXwd-19" target="OCKaOWb37HJy0MvpUXwd-20">
            <mxGeometry relative="1" as="geometry">
              <mxPoint x="-246" y="572" as="offset" />
              <Array as="points">
                <mxPoint x="2602.5" y="942" />
              </Array>
            </mxGeometry>
          </mxCell>
        </UserObject>
        <UserObject label="" tags="Background" id="OCKaOWb37HJy0MvpUXwd-84">
          <mxCell style="vsdxID=84;edgeStyle=none;startArrow=none;endArrow=none;startSize=5;endSize=5;strokeWidth=2;spacingTop=0;spacingBottom=0;spacingLeft=0;spacingRight=0;verticalAlign=middle;html=1;labelBackgroundColor=#ffffff;rounded=0;exitX=1;exitY=0.5;exitDx=0;exitDy=0;exitPerimeter=0;entryX=0;entryY=0.5;entryDx=0;entryDy=0;entryPerimeter=0;" edge="1" parent="1" source="OCKaOWb37HJy0MvpUXwd-31" target="OCKaOWb37HJy0MvpUXwd-32">
            <mxGeometry relative="1" as="geometry">
              <mxPoint x="-94" y="102" as="offset" />
              <Array as="points" />
            </mxGeometry>
          </mxCell>
        </UserObject>
        <UserObject label="" tags="Background" id="OCKaOWb37HJy0MvpUXwd-85">
          <mxCell style="vsdxID=85;edgeStyle=none;startArrow=none;endArrow=none;startSize=5;endSize=5;strokeWidth=2;spacingTop=0;spacingBottom=0;spacingLeft=0;spacingRight=0;verticalAlign=middle;html=1;labelBackgroundColor=#ffffff;rounded=0;exitX=1;exitY=0.5;exitDx=0;exitDy=0;exitPerimeter=0;entryX=0;entryY=0.5;entryDx=0;entryDy=0;entryPerimeter=0;" edge="1" parent="1" source="OCKaOWb37HJy0MvpUXwd-33" target="OCKaOWb37HJy0MvpUXwd-37">
            <mxGeometry relative="1" as="geometry">
              <mxPoint x="-56" y="102" as="offset" />
              <Array as="points" />
            </mxGeometry>
          </mxCell>
        </UserObject>
        <UserObject label="" tags="Background" id="OCKaOWb37HJy0MvpUXwd-86">
          <mxCell style="vsdxID=86;edgeStyle=none;startArrow=block;endArrow=block;startSize=5;endSize=5;strokeWidth=2;spacingTop=0;spacingBottom=0;spacingLeft=0;spacingRight=0;verticalAlign=middle;html=1;labelBackgroundColor=#ffffff;rounded=0;exitX=1;exitY=0.5;exitDx=0;exitDy=0;exitPerimeter=0;entryX=0;entryY=0.5;entryDx=0;entryDy=0;entryPerimeter=0;" edge="1" parent="1" source="OCKaOWb37HJy0MvpUXwd-57" target="OCKaOWb37HJy0MvpUXwd-58">
            <mxGeometry relative="1" as="geometry">
              <mxPoint x="-128" y="102" as="offset" />
              <Array as="points">
                <mxPoint x="1349.5" y="3960" />
                <mxPoint x="1349.5" y="3960" />
              </Array>
            </mxGeometry>
          </mxCell>
        </UserObject>
        <UserObject label="" tags="Background" id="OCKaOWb37HJy0MvpUXwd-87">
          <mxCell style="vsdxID=87;edgeStyle=none;startArrow=open;endArrow=open;startSize=5;endSize=5;strokeWidth=2;spacingTop=0;spacingBottom=0;spacingLeft=0;spacingRight=0;verticalAlign=middle;html=1;labelBackgroundColor=#ffffff;rounded=0;exitX=1;exitY=0.49382716049382713;exitDx=0;exitDy=0;exitPerimeter=0;entryX=0;entryY=0.49382716049382713;entryDx=0;entryDy=0;entryPerimeter=0;" edge="1" parent="1" source="OCKaOWb37HJy0MvpUXwd-65" target="OCKaOWb37HJy0MvpUXwd-66">
            <mxGeometry relative="1" as="geometry">
              <mxPoint x="-122" y="102" as="offset" />
              <Array as="points">
                <mxPoint x="684" y="4683" />
                <mxPoint x="684" y="4683" />
              </Array>
            </mxGeometry>
          </mxCell>
        </UserObject>
        <UserObject label="&lt;div style=&quot;font-size: 1px&quot;&gt;&lt;p style=&quot;text-align:center;margin-left:0;margin-right:0;margin-top:0px;margin-bottom:0px;text-indent:0;vertical-align:middle;direction:ltr;&quot;&gt;&lt;font style=&quot;font-size:12px;font-family:0;color:#000000;direction:ltr;letter-spacing:0px;line-height:120%;opacity:1&quot;&gt;RES2&lt;/font&gt;&lt;/p&gt;&lt;/div&gt;" tags="Background" id="OCKaOWb37HJy0MvpUXwd-88">
          <mxCell style="vsdxID=88;edgeStyle=orthogonalEdgeStyle;startArrow=none;endArrow=block;startSize=5;endSize=5;strokeWidth=2;spacingTop=0;spacingBottom=0;spacingLeft=0;spacingRight=0;verticalAlign=middle;html=1;labelBackgroundColor=#ffffff;rounded=0;align=center;exitX=0.5072463768115942;exitY=0;exitDx=0;exitDy=0;exitPerimeter=0;entryX=0.4927536231884058;entryY=0;entryDx=0;entryDy=0;entryPerimeter=0;curved=1;" edge="1" parent="1" source="OCKaOWb37HJy0MvpUXwd-56" target="OCKaOWb37HJy0MvpUXwd-54">
            <mxGeometry relative="1" as="geometry">
              <Array as="points">
                <mxPoint x="930" y="3810" />
                <mxPoint x="424" y="3810" />
              </Array>
            </mxGeometry>
          </mxCell>
        </UserObject>
        <UserObject label="" tags="Background" id="OCKaOWb37HJy0MvpUXwd-89">
          <mxCell style="vsdxID=89;edgeStyle=none;startArrow=block;endArrow=block;startSize=5;endSize=5;strokeWidth=2;spacingTop=0;spacingBottom=0;spacingLeft=0;spacingRight=0;verticalAlign=middle;html=1;labelBackgroundColor=#ffffff;rounded=0;exitX=1;exitY=0.5;exitDx=0;exitDy=0;exitPerimeter=0;entryX=0;entryY=0.5;entryDx=0;entryDy=0;entryPerimeter=0;" edge="1" parent="1" source="OCKaOWb37HJy0MvpUXwd-55" target="OCKaOWb37HJy0MvpUXwd-56">
            <mxGeometry relative="1" as="geometry">
              <mxPoint x="-91" y="102" as="offset" />
              <Array as="points">
                <mxPoint x="806.57" y="3960" />
                <mxPoint x="806.57" y="3960" />
              </Array>
            </mxGeometry>
          </mxCell>
        </UserObject>
        <UserObject label="&lt;div style=&quot;font-size: 1px&quot;&gt;&lt;p style=&quot;text-align:center;margin-left:0;margin-right:0;margin-top:0px;margin-bottom:0px;text-indent:0;vertical-align:middle;direction:ltr;&quot;&gt;&lt;font style=&quot;font-size:12px;font-family:0;color:#000000;direction:ltr;letter-spacing:0px;line-height:120%;opacity:1&quot;&gt;REQ2&lt;/font&gt;&lt;/p&gt;&lt;/div&gt;" tags="Background" id="OCKaOWb37HJy0MvpUXwd-90">
          <mxCell style="vsdxID=90;edgeStyle=orthogonalEdgeStyle;startArrow=none;endArrow=block;startSize=5;endSize=5;strokeWidth=2;spacingTop=0;spacingBottom=0;spacingLeft=0;spacingRight=0;verticalAlign=middle;html=1;labelBackgroundColor=#ffffff;rounded=0;align=center;exitX=0.4927536231884058;exitY=1;exitDx=0;exitDy=0;exitPerimeter=0;entryX=0.5072463768115942;entryY=1;entryDx=0;entryDy=0;entryPerimeter=0;curved=1;" edge="1" parent="1" source="OCKaOWb37HJy0MvpUXwd-54" target="OCKaOWb37HJy0MvpUXwd-56">
            <mxGeometry relative="1" as="geometry">
              <Array as="points">
                <mxPoint x="424" y="4090" />
                <mxPoint x="930" y="4090" />
              </Array>
            </mxGeometry>
          </mxCell>
        </UserObject>
        <UserObject label="&lt;div style=&quot;font-size: 1px&quot;&gt;&lt;p style=&quot;text-align:center;margin-left:0;margin-right:0;margin-top:0px;margin-bottom:0px;text-indent:0;vertical-align:middle;direction:ltr;&quot;&gt;&lt;font style=&quot;font-size:12px;font-family:0;color:#000000;direction:ltr;letter-spacing:0px;line-height:120%;opacity:1&quot;&gt;RES1&lt;/font&gt;&lt;/p&gt;&lt;/div&gt;" tags="Background" id="OCKaOWb37HJy0MvpUXwd-91">
          <mxCell style="vsdxID=91;edgeStyle=orthogonalEdgeStyle;startArrow=none;endArrow=block;startSize=5;endSize=5;strokeWidth=2;spacingTop=0;spacingBottom=0;spacingLeft=0;spacingRight=0;verticalAlign=middle;html=1;labelBackgroundColor=#ffffff;rounded=0;align=center;exitX=0.4927536231884058;exitY=0;exitDx=0;exitDy=0;exitPerimeter=0;entryX=0.4927536231884058;entryY=0;entryDx=0;entryDy=0;entryPerimeter=0;curved=1;" edge="1" parent="1" source="OCKaOWb37HJy0MvpUXwd-55" target="OCKaOWb37HJy0MvpUXwd-54">
            <mxGeometry relative="1" as="geometry">
              <Array as="points">
                <mxPoint x="679" y="3880" />
                <mxPoint x="424" y="3880" />
              </Array>
            </mxGeometry>
          </mxCell>
        </UserObject>
        <UserObject label="&lt;div style=&quot;font-size: 1px&quot;&gt;&lt;p style=&quot;text-align:center;margin-left:0;margin-right:0;margin-top:0px;margin-bottom:0px;text-indent:0;vertical-align:middle;direction:ltr;&quot;&gt;&lt;font style=&quot;font-size:12px;font-family:0;color:#000000;direction:ltr;letter-spacing:0px;line-height:120%;opacity:1&quot;&gt;RES3&lt;/font&gt;&lt;/p&gt;&lt;/div&gt;" tags="Background" id="OCKaOWb37HJy0MvpUXwd-92">
          <mxCell style="vsdxID=92;edgeStyle=orthogonalEdgeStyle;startArrow=none;endArrow=block;startSize=5;endSize=5;strokeWidth=2;spacingTop=0;spacingBottom=0;spacingLeft=0;spacingRight=0;verticalAlign=middle;html=1;labelBackgroundColor=#ffffff;rounded=0;align=center;exitX=0.5072463768115942;exitY=0;exitDx=0;exitDy=0;exitPerimeter=0;entryX=0.5072463768115942;entryY=0;entryDx=0;entryDy=0;entryPerimeter=0;curved=1;" edge="1" parent="1" source="OCKaOWb37HJy0MvpUXwd-57" target="OCKaOWb37HJy0MvpUXwd-54">
            <mxGeometry relative="1" as="geometry">
              <Array as="points">
                <mxPoint x="1188" y="3750" />
                <mxPoint x="425" y="3750" />
              </Array>
            </mxGeometry>
          </mxCell>
        </UserObject>
        <UserObject label="" tags="Background" id="OCKaOWb37HJy0MvpUXwd-93">
          <mxCell style="vsdxID=93;edgeStyle=none;startArrow=open;endArrow=open;startSize=5;endSize=5;strokeWidth=2;spacingTop=0;spacingBottom=0;spacingLeft=0;spacingRight=0;verticalAlign=middle;html=1;labelBackgroundColor=#ffffff;rounded=0;exitX=1;exitY=0.49382716049382713;exitDx=0;exitDy=0;exitPerimeter=0;entryX=0;entryY=0.49382716049382713;entryDx=0;entryDy=0;entryPerimeter=0;" edge="1" parent="1" source="OCKaOWb37HJy0MvpUXwd-69" target="OCKaOWb37HJy0MvpUXwd-70">
            <mxGeometry relative="1" as="geometry">
              <mxPoint x="-122" y="102" as="offset" />
              <Array as="points">
                <mxPoint x="684" y="4845" />
                <mxPoint x="684" y="4845" />
              </Array>
            </mxGeometry>
          </mxCell>
        </UserObject>
        <UserObject label="" tags="Background" id="OCKaOWb37HJy0MvpUXwd-94">
          <mxCell style="vsdxID=94;edgeStyle=none;startArrow=none;endArrow=block;startSize=5;endSize=5;strokeWidth=2;spacingTop=0;spacingBottom=0;spacingLeft=0;spacingRight=0;verticalAlign=middle;html=1;labelBackgroundColor=#ffffff;rounded=0;exitX=1;exitY=0.4888888888888889;exitDx=0;exitDy=0;exitPerimeter=0;entryX=0.5;entryY=1;entryDx=0;entryDy=0;entryPerimeter=0;" edge="1" parent="1" source="OCKaOWb37HJy0MvpUXwd-39" target="OCKaOWb37HJy0MvpUXwd-41">
            <mxGeometry relative="1" as="geometry">
              <mxPoint x="-50" y="68" as="offset" />
              <Array as="points">
                <mxPoint x="359.02" y="2537" />
                <mxPoint x="359.02" y="2610.3" />
                <mxPoint x="473" y="2610.3" />
              </Array>
            </mxGeometry>
          </mxCell>
        </UserObject>
        <UserObject label="" tags="Background" id="OCKaOWb37HJy0MvpUXwd-95">
          <mxCell style="vsdxID=95;edgeStyle=none;startArrow=none;endArrow=none;startSize=5;endSize=5;strokeWidth=2;spacingTop=0;spacingBottom=0;spacingLeft=0;spacingRight=0;verticalAlign=middle;html=1;labelBackgroundColor=#ffffff;rounded=0;exitX=0.855072463768116;exitY=0.21428571428571427;exitDx=0;exitDy=0;exitPerimeter=0;entryX=0;entryY=0.5;entryDx=0;entryDy=0;entryPerimeter=0;" edge="1" parent="1" source="OCKaOWb37HJy0MvpUXwd-35" target="OCKaOWb37HJy0MvpUXwd-36">
            <mxGeometry relative="1" as="geometry">
              <mxPoint x="-73" y="65" as="offset" />
              <Array as="points" />
            </mxGeometry>
          </mxCell>
        </UserObject>
        <UserObject label="" tags="Background" id="OCKaOWb37HJy0MvpUXwd-96">
          <mxCell style="vsdxID=96;edgeStyle=none;startArrow=none;endArrow=none;startSize=5;endSize=5;strokeWidth=2;spacingTop=0;spacingBottom=0;spacingLeft=0;spacingRight=0;verticalAlign=middle;html=1;labelBackgroundColor=#ffffff;rounded=0;exitX=1;exitY=0.5;exitDx=0;exitDy=0;exitPerimeter=0;entryX=0;entryY=0.5;entryDx=0;entryDy=0;entryPerimeter=0;" edge="1" parent="1" source="OCKaOWb37HJy0MvpUXwd-35" target="OCKaOWb37HJy0MvpUXwd-38">
            <mxGeometry relative="1" as="geometry">
              <mxPoint x="-68" y="141" as="offset" />
              <Array as="points" />
            </mxGeometry>
          </mxCell>
        </UserObject>
        <UserObject label="" tags="Background" id="OCKaOWb37HJy0MvpUXwd-97">
          <mxCell style="vsdxID=97;edgeStyle=none;startArrow=open;endArrow=open;startSize=5;endSize=5;strokeWidth=2;spacingTop=0;spacingBottom=0;spacingLeft=0;spacingRight=0;verticalAlign=middle;html=1;labelBackgroundColor=#ffffff;rounded=0;exitX=1;exitY=0.49382716049382713;exitDx=0;exitDy=0;exitPerimeter=0;entryX=0;entryY=0.49382716049382713;entryDx=0;entryDy=0;entryPerimeter=0;" edge="1" parent="1" source="OCKaOWb37HJy0MvpUXwd-67" target="OCKaOWb37HJy0MvpUXwd-68">
            <mxGeometry relative="1" as="geometry">
              <mxPoint x="-122" y="102" as="offset" />
              <Array as="points">
                <mxPoint x="684" y="4764" />
                <mxPoint x="684" y="4764" />
              </Array>
            </mxGeometry>
          </mxCell>
        </UserObject>
        <UserObject label="" tags="Background" id="OCKaOWb37HJy0MvpUXwd-98">
          <mxCell style="vsdxID=98;edgeStyle=none;startArrow=none;endFill=0;endArrow=block;startSize=5;endSize=5;strokeWidth=2;spacingTop=0;spacingBottom=0;spacingLeft=0;spacingRight=0;verticalAlign=middle;html=1;labelBackgroundColor=#ffffff;rounded=0;exitX=1;exitY=0.3181818181818182;exitDx=0;exitDy=0;exitPerimeter=0;entryX=0;entryY=0.2962962962962963;entryDx=0;entryDy=0;entryPerimeter=0;" edge="1" parent="1" source="OCKaOWb37HJy0MvpUXwd-11" target="OCKaOWb37HJy0MvpUXwd-12">
            <mxGeometry relative="1" as="geometry">
              <mxPoint x="-187" y="102" as="offset" />
              <Array as="points">
                <mxPoint x="1903.25" y="903" />
                <mxPoint x="1903.25" y="903" />
              </Array>
            </mxGeometry>
          </mxCell>
        </UserObject>
        <UserObject label="" tags="Background" id="OCKaOWb37HJy0MvpUXwd-99">
          <mxCell style="vsdxID=99;edgeStyle=none;startArrow=none;endArrow=block;startSize=5;endSize=5;strokeWidth=2;spacingTop=0;spacingBottom=0;spacingLeft=0;spacingRight=0;verticalAlign=middle;html=1;labelBackgroundColor=#ffffff;rounded=0;exitX=1;exitY=0.5;exitDx=0;exitDy=0;exitPerimeter=0;entryX=0;entryY=0.4966442953020134;entryDx=0;entryDy=0;entryPerimeter=0;" edge="1" parent="1" source="OCKaOWb37HJy0MvpUXwd-41" target="OCKaOWb37HJy0MvpUXwd-44">
            <mxGeometry relative="1" as="geometry">
              <mxPoint x="-42" y="66" as="offset" />
              <Array as="points">
                <mxPoint x="564.5" y="2528" />
                <mxPoint x="564.5" y="2457.5" />
              </Array>
            </mxGeometry>
          </mxCell>
        </UserObject>
        <UserObject label="" tags="Background" id="OCKaOWb37HJy0MvpUXwd-100">
          <mxCell style="vsdxID=100;edgeStyle=none;startArrow=open;endArrow=open;startSize=5;endSize=5;strokeWidth=2;spacingTop=0;spacingBottom=0;spacingLeft=0;spacingRight=0;verticalAlign=middle;html=1;labelBackgroundColor=#ffffff;rounded=0;exitX=1;exitY=0.49382716049382713;exitDx=0;exitDy=0;exitPerimeter=0;entryX=0;entryY=0.49382716049382713;entryDx=0;entryDy=0;entryPerimeter=0;" edge="1" parent="1" source="OCKaOWb37HJy0MvpUXwd-71" target="OCKaOWb37HJy0MvpUXwd-72">
            <mxGeometry relative="1" as="geometry">
              <mxPoint x="-122" y="102" as="offset" />
              <Array as="points">
                <mxPoint x="684" y="4926" />
                <mxPoint x="684" y="4926" />
              </Array>
            </mxGeometry>
          </mxCell>
        </UserObject>
        <UserObject label="&lt;div style=&quot;font-size: 1px&quot;&gt;&lt;p style=&quot;text-align:center;margin-left:0;margin-right:0;margin-top:0px;margin-bottom:0px;text-indent:0;vertical-align:middle;direction:ltr;&quot;&gt;&lt;font style=&quot;font-size:12px;font-family:0;color:#000000;direction:ltr;letter-spacing:0px;line-height:120%;opacity:1&quot;&gt;REQ1&lt;/font&gt;&lt;/p&gt;&lt;/div&gt;" tags="Background" id="OCKaOWb37HJy0MvpUXwd-101">
          <mxCell style="vsdxID=101;edgeStyle=orthogonalEdgeStyle;startArrow=none;endArrow=block;startSize=5;endSize=5;strokeWidth=2;spacingTop=0;spacingBottom=0;spacingLeft=0;spacingRight=0;verticalAlign=middle;html=1;labelBackgroundColor=#ffffff;rounded=0;align=center;exitX=0.4927536231884058;exitY=1;exitDx=0;exitDy=0;exitPerimeter=0;entryX=0.4927536231884058;entryY=1;entryDx=0;entryDy=0;entryPerimeter=0;curved=1;" edge="1" parent="1" source="OCKaOWb37HJy0MvpUXwd-54" target="OCKaOWb37HJy0MvpUXwd-55">
            <mxGeometry relative="1" as="geometry">
              <Array as="points">
                <mxPoint x="424" y="4030" />
                <mxPoint x="679" y="4030" />
              </Array>
            </mxGeometry>
          </mxCell>
        </UserObject>
        <UserObject label="&lt;div style=&quot;font-size: 1px&quot;&gt;&lt;p style=&quot;text-align:center;margin-left:0;margin-right:0;margin-top:0px;margin-bottom:0px;text-indent:0;vertical-align:middle;direction:ltr;&quot;&gt;&lt;font style=&quot;font-size:12px;font-family:0;color:#000000;direction:ltr;letter-spacing:0px;line-height:120%;opacity:1&quot;&gt;REQ3&lt;/font&gt;&lt;/p&gt;&lt;/div&gt;" tags="Background" id="OCKaOWb37HJy0MvpUXwd-102">
          <mxCell style="vsdxID=102;edgeStyle=orthogonalEdgeStyle;startArrow=none;endArrow=block;startSize=5;endSize=5;strokeWidth=2;spacingTop=0;spacingBottom=0;spacingLeft=0;spacingRight=0;verticalAlign=middle;html=1;labelBackgroundColor=#ffffff;rounded=0;align=center;exitX=0.4927536231884058;exitY=1;exitDx=0;exitDy=0;exitPerimeter=0;entryX=0.4927536231884058;entryY=1;entryDx=0;entryDy=0;entryPerimeter=0;curved=1;" edge="1" parent="1" source="OCKaOWb37HJy0MvpUXwd-54" target="OCKaOWb37HJy0MvpUXwd-57">
            <mxGeometry relative="1" as="geometry">
              <Array as="points">
                <mxPoint x="424" y="4140" />
                <mxPoint x="1187" y="4140" />
              </Array>
            </mxGeometry>
          </mxCell>
        </UserObject>
        <UserObject label="" tags="Background" id="OCKaOWb37HJy0MvpUXwd-103">
          <mxCell style="vsdxID=103;edgeStyle=none;startArrow=none;endArrow=none;startSize=5;endSize=5;strokeWidth=2;spacingTop=0;spacingBottom=0;spacingLeft=0;spacingRight=0;verticalAlign=middle;html=1;labelBackgroundColor=#ffffff;rounded=0;exitX=0.5072463768115942;exitY=0;exitDx=0;exitDy=0;exitPerimeter=0;entryX=0.5072463768115942;entryY=1;entryDx=0;entryDy=0;entryPerimeter=0;" edge="1" parent="1" source="OCKaOWb37HJy0MvpUXwd-32" target="OCKaOWb37HJy0MvpUXwd-34">
            <mxGeometry relative="1" as="geometry">
              <mxPoint y="58" as="offset" />
              <Array as="points" />
            </mxGeometry>
          </mxCell>
        </UserObject>
        <UserObject label="" tags="Background" id="OCKaOWb37HJy0MvpUXwd-104">
          <mxCell style="vsdxID=104;edgeStyle=none;startArrow=block;endArrow=block;startSize=5;endSize=5;strokeWidth=2;spacingTop=0;spacingBottom=0;spacingLeft=0;spacingRight=0;verticalAlign=middle;html=1;labelBackgroundColor=#ffffff;rounded=0;exitX=1;exitY=0.5;exitDx=0;exitDy=0;exitPerimeter=0;entryX=-0.028985507246376812;entryY=0.5;entryDx=0;entryDy=0;entryPerimeter=0;" edge="1" parent="1" source="OCKaOWb37HJy0MvpUXwd-56" target="OCKaOWb37HJy0MvpUXwd-57">
            <mxGeometry relative="1" as="geometry">
              <mxPoint x="-93" y="102" as="offset" />
              <Array as="points">
                <mxPoint x="1059.12" y="3960" />
                <mxPoint x="1059.12" y="3960" />
              </Array>
            </mxGeometry>
          </mxCell>
        </UserObject>
        <UserObject label="" tags="Background" id="OCKaOWb37HJy0MvpUXwd-105">
          <mxCell style="vsdxID=105;edgeStyle=none;startArrow=none;endArrow=none;startSize=5;endSize=5;strokeWidth=2;spacingTop=0;spacingBottom=0;spacingLeft=0;spacingRight=0;verticalAlign=middle;html=1;labelBackgroundColor=#ffffff;rounded=0;exitX=0.5072463768115942;exitY=1;exitDx=0;exitDy=0;exitPerimeter=0;entryX=0.5072463768115942;entryY=0;entryDx=0;entryDy=0;entryPerimeter=0;" edge="1" parent="1" source="OCKaOWb37HJy0MvpUXwd-32" target="OCKaOWb37HJy0MvpUXwd-33">
            <mxGeometry relative="1" as="geometry">
              <mxPoint y="151" as="offset" />
              <Array as="points" />
            </mxGeometry>
          </mxCell>
        </UserObject>
      </root>
    </mxGraphModel>
  </diagram>
</mxfile>
